  0
SECTION
  2
HEADER
  9
$ACADVER
  1
AC1009
  9
$MEASUREMENT
  70
0
  9
$INSUNITS
  70
1
  9
$DIMLFAC
  40
1
  9
$INSBASE
  10
0.0
  20
0.0
  30
0.0
  9
$EXTMIN
  10
2
  20
2
  9
$EXTMAX
  10
9.807578740158
  20
15.369094488189
  9
$LIMMIN
  10
2
  20
2
  9
$LIMMAX
  10
9.807578740158
  20
15.369094488189
  9
$CLAYER
  8
0
  0
ENDSEC
  0
SECTION
  2
TABLES
  0
TABLE
  2
LTYPE
  70
2
  0
LTYPE
  2
CONTINUOUS
  70
65
  3
Solid line
  72
65
  73
0
  40
0
  0
LTYPE
  2
DASHED
  70
65
  3
 _ _ _ _ _ _ _ _ _ _ _ _ _ _ _ _ _ _ _ _ _ _
  72
65
  73
2
  40
0.07874015748
  49
0.03937007874
  49
-0.03937007874
  0
ENDTAB
  0
TABLE
  2
LAYER
  70
1
  0
LAYER
  2
0
  70
0
  62
7
  6
CONTINUOUS
  0
ENDTAB
  0
ENDSEC
  0
SECTION
  2
BLOCKS
  0
ENDSEC
  0
SECTION
  2
ENTITIES
  0
LINE
  8
0
  10
4.42877970555
  20
3.758447484785
  30
0.11811023622
  11
5.004567107125
  21
3.758447484785
  31
0.11811023622
  0
LINE
  8
0
  10
5.004567107125
  20
3.758447484785
  30
0.11811023622
  11
5.004567107125
  21
4.008447484785
  31
0.11811023622
  0
LINE
  8
0
  10
5.004567107125
  20
4.008447484785
  30
0.11811023622
  11
5.292460807912
  21
4.008447484785
  31
0.11811023622
  0
LINE
  8
0
  10
5.292460807912
  20
4.008447484785
  30
0.11811023622
  11
5.292460807912
  21
4.703329374548
  31
0.11811023622
  0
LINE
  8
0
  10
5.292460807912
  20
4.703329374548
  30
0.11811023622
  11
5.390886004763
  21
4.703329374548
  31
0.11811023622
  0
LINE
  8
0
  10
5.390886004763
  20
4.703329374548
  30
0.11811023622
  11
5.390886004763
  21
4.883447484784
  31
0.11811023622
  0
LINE
  8
0
  10
5.390886004763
  20
4.883447484784
  30
0.11811023622
  11
5.154665532322
  21
4.883447484784
  31
0.11811023622
  0
LINE
  8
0
  10
5.154665532322
  20
4.883447484784
  30
0.11811023622
  11
5.154665532322
  21
5.133447484785
  31
0.11811023622
  0
LINE
  8
0
  10
5.154665532322
  20
5.133447484785
  30
0.11811023622
  11
5.390886004763
  21
5.133447484785
  31
0.11811023622
  0
LINE
  8
0
  10
5.390886004763
  20
5.133447484784
  30
0.11811023622
  11
5.390886004763
  21
6.008447484785
  31
0.11811023622
  0
LINE
  8
0
  10
5.390886004763
  20
6.008447484785
  30
0.11811023622
  11
4.997185217361
  21
5.133447484784
  31
0.11811023622
  0
LINE
  8
0
  10
4.997185217361
  20
5.133447484785
  30
0.11811023622
  11
4.997185217361
  21
4.883447484785
  31
0.11811023622
  0
LINE
  8
0
  10
4.997185217361
  20
4.883447484784
  30
0.11811023622
  11
4.765886004763
  21
4.508447484785
  31
0.11811023622
  0
LINE
  8
0
  10
4.765886004763
  20
4.508447484785
  30
0.11811023622
  11
4.140886004763
  21
4.008447484785
  31
0.11811023622
  0
LINE
  8
0
  10
4.140886004763
  20
4.008447484785
  30
0.11811023622
  11
4.42877970555
  21
4.008447484785
  31
0.11811023622
  0
LINE
  8
0
  10
4.42877970555
  20
4.008447484785
  30
0.11811023622
  11
4.42877970555
  21
3.758447484785
  31
0.11811023622
  0
LINE
  8
0
  10
6.761318897638
  20
10.82816892534
  30
0.11811023622
  11
7.337106299213
  21
10.82816892534
  31
0.11811023622
  0
LINE
  8
0
  10
7.337106299213
  20
10.82816892534
  30
0.11811023622
  11
7.337106299213
  21
11.07816892534
  31
0.11811023622
  0
LINE
  8
0
  10
7.337106299213
  20
11.07816892534
  30
0.11811023622
  11
7.473425196851
  21
11.07816892534
  31
0.11811023622
  0
LINE
  8
0
  10
7.473425196851
  20
11.07816892534
  30
0.11811023622
  11
7.473425196851
  21
11.425609870222
  31
0.11811023622
  0
LINE
  8
0
  10
7.473425196851
  20
11.425609870222
  30
0.11811023622
  11
7.723425196851
  21
11.425609870222
  31
0.11811023622
  0
LINE
  8
0
  10
7.723425196851
  20
11.425609870222
  30
0.11811023622
  11
7.723425196851
  21
11.95316892534
  31
0.11811023622
  0
LINE
  8
0
  10
7.723425196851
  20
11.95316892534
  30
0.11811023622
  11
7.48720472441
  21
11.95316892534
  31
0.11811023622
  0
LINE
  8
0
  10
7.48720472441
  20
11.95316892534
  30
0.11811023622
  11
7.48720472441
  21
12.20316892534
  31
0.11811023622
  0
LINE
  8
0
  10
7.48720472441
  20
12.20316892534
  30
0.11811023622
  11
7.723425196851
  21
12.20316892534
  31
0.11811023622
  0
LINE
  8
0
  10
7.723425196851
  20
12.20316892534
  30
0.11811023622
  11
7.723425196851
  21
13.07816892534
  31
0.11811023622
  0
LINE
  8
0
  10
7.723425196851
  20
13.07816892534
  30
0.11811023622
  11
7.329724409449
  21
12.20316892534
  31
0.11811023622
  0
LINE
  8
0
  10
7.329724409449
  20
12.20316892534
  30
0.11811023622
  11
7.329724409449
  21
11.95316892534
  31
0.11811023622
  0
LINE
  8
0
  10
7.329724409449
  20
11.95316892534
  30
0.11811023622
  11
7.098425196851
  21
11.57816892534
  31
0.11811023622
  0
LINE
  8
0
  10
7.098425196851
  20
11.57816892534
  30
0.11811023622
  11
6.473425196851
  21
11.07816892534
  31
0.11811023622
  0
LINE
  8
0
  10
6.473425196851
  20
11.07816892534
  30
0.11811023622
  11
6.761318897638
  21
11.07816892534
  31
0.11811023622
  0
LINE
  8
0
  10
6.761318897638
  20
11.07816892534
  30
0.11811023622
  11
6.761318897638
  21
10.82816892534
  31
0.11811023622
  0
LINE
  8
0
  10
4.322342519685
  20
10.435039370078
  30
0.11811023622
  11
4.89812992126
  21
10.435039370078
  31
0.11811023622
  0
LINE
  8
0
  10
4.89812992126
  20
10.435039370078
  30
0.11811023622
  11
4.89812992126
  21
10.685039370078
  31
0.11811023622
  0
LINE
  8
0
  10
4.89812992126
  20
10.685039370078
  30
0.11811023622
  11
5.034448818898
  21
10.685039370078
  31
0.11811023622
  0
LINE
  8
0
  10
5.034448818898
  20
10.685039370078
  30
0.11811023622
  11
5.034448818898
  21
11.03248031496
  31
0.11811023622
  0
LINE
  8
0
  10
5.034448818898
  20
11.03248031496
  30
0.11811023622
  11
5.284448818898
  21
11.03248031496
  31
0.11811023622
  0
LINE
  8
0
  10
5.284448818898
  20
11.03248031496
  30
0.11811023622
  11
5.284448818898
  21
11.560039370078
  31
0.11811023622
  0
LINE
  8
0
  10
5.284448818898
  20
11.560039370078
  30
0.11811023622
  11
5.048228346457
  21
11.560039370078
  31
0.11811023622
  0
LINE
  8
0
  10
5.048228346457
  20
11.560039370078
  30
0.11811023622
  11
5.048228346457
  21
11.810039370078
  31
0.11811023622
  0
LINE
  8
0
  10
5.048228346457
  20
11.810039370078
  30
0.11811023622
  11
5.284448818898
  21
11.810039370078
  31
0.11811023622
  0
LINE
  8
0
  10
5.284448818898
  20
11.810039370078
  30
0.11811023622
  11
5.284448818898
  21
12.685039370078
  31
0.11811023622
  0
LINE
  8
0
  10
5.284448818898
  20
12.685039370079
  30
0.11811023622
  11
4.890748031496
  21
11.810039370078
  31
0.11811023622
  0
LINE
  8
0
  10
4.890748031496
  20
11.810039370078
  30
0.11811023622
  11
4.890748031496
  21
11.560039370078
  31
0.11811023622
  0
LINE
  8
0
  10
4.890748031496
  20
11.560039370078
  30
0.11811023622
  11
4.659448818898
  21
11.185039370078
  31
0.11811023622
  0
LINE
  8
0
  10
4.659448818898
  20
11.185039370078
  30
0.11811023622
  11
4.034448818898
  21
10.685039370078
  31
0.11811023622
  0
LINE
  8
0
  10
4.034448818898
  20
10.685039370078
  30
0.11811023622
  11
4.322342519685
  21
10.685039370078
  31
0.11811023622
  0
LINE
  8
0
  10
4.322342519685
  20
10.685039370078
  30
0.11811023622
  11
4.322342519685
  21
10.435039370078
  31
0.11811023622
  0
LINE
  8
0
  10
6.797982283465
  20
4.068405511811
  30
0.11811023622
  11
7.37376968504
  21
4.068405511811
  31
0.11811023622
  0
LINE
  8
0
  10
7.37376968504
  20
4.068405511811
  30
0.11811023622
  11
7.37376968504
  21
4.318405511811
  31
0.11811023622
  0
LINE
  8
0
  10
7.37376968504
  20
4.318405511811
  30
0.11811023622
  11
7.510088582677
  21
4.318405511811
  31
0.11811023622
  0
LINE
  8
0
  10
7.510088582677
  20
4.318405511811
  30
0.11811023622
  11
7.510088582677
  21
4.665846456693
  31
0.11811023622
  0
LINE
  8
0
  10
7.510088582677
  20
4.665846456693
  30
0.11811023622
  11
7.760088582677
  21
4.665846456693
  31
0.11811023622
  0
LINE
  8
0
  10
7.760088582677
  20
4.665846456693
  30
0.11811023622
  11
7.760088582677
  21
5.193405511811
  31
0.11811023622
  0
LINE
  8
0
  10
7.760088582677
  20
5.193405511811
  30
0.11811023622
  11
7.523868110236
  21
5.193405511811
  31
0.11811023622
  0
LINE
  8
0
  10
7.523868110236
  20
5.193405511811
  30
0.11811023622
  11
7.523868110236
  21
5.443405511811
  31
0.11811023622
  0
LINE
  8
0
  10
7.523868110236
  20
5.443405511811
  30
0.11811023622
  11
7.760088582677
  21
5.443405511811
  31
0.11811023622
  0
LINE
  8
0
  10
7.760088582677
  20
5.443405511811
  30
0.11811023622
  11
7.760088582677
  21
6.318405511811
  31
0.11811023622
  0
LINE
  8
0
  10
7.760088582677
  20
6.318405511811
  30
0.11811023622
  11
7.366387795276
  21
5.443405511811
  31
0.11811023622
  0
LINE
  8
0
  10
7.366387795276
  20
5.443405511811
  30
0.11811023622
  11
7.366387795276
  21
5.193405511811
  31
0.11811023622
  0
LINE
  8
0
  10
7.366387795276
  20
5.193405511811
  30
0.11811023622
  11
7.135088582677
  21
4.818405511811
  31
0.11811023622
  0
LINE
  8
0
  10
7.135088582677
  20
4.818405511811
  30
0.11811023622
  11
6.510088582677
  21
4.318405511811
  31
0.11811023622
  0
LINE
  8
0
  10
6.510088582677
  20
4.318405511811
  30
0.11811023622
  11
6.797982283465
  21
4.318405511811
  31
0.11811023622
  0
LINE
  8
0
  10
6.797982283465
  20
4.318405511811
  30
0.11811023622
  11
6.797982283465
  21
4.068405511811
  31
0.11811023622
  0
LINE
  8
0
  10
5.085060532796
  20
9.47971738049
  30
0.11811023622
  11
5.660847934371
  21
9.47971738049
  31
0.11811023622
  0
LINE
  8
0
  10
5.660847934371
  20
9.47971738049
  30
0.11811023622
  11
5.660847934371
  21
9.72971738049
  31
0.11811023622
  0
LINE
  8
0
  10
5.660847934371
  20
9.72971738049
  30
0.11811023622
  11
5.948741635158
  21
9.72971738049
  31
0.11811023622
  0
LINE
  8
0
  10
5.948741635158
  20
9.72971738049
  30
0.11811023622
  11
5.948741635158
  21
10.424599270254
  31
0.11811023622
  0
LINE
  8
0
  10
5.948741635158
  20
10.424599270254
  30
0.11811023622
  11
6.047166832009
  21
10.424599270254
  31
0.11811023622
  0
LINE
  8
0
  10
6.047166832009
  20
10.424599270254
  30
0.11811023622
  11
6.047166832009
  21
10.60471738049
  31
0.11811023622
  0
LINE
  8
0
  10
6.047166832009
  20
10.60471738049
  30
0.11811023622
  11
5.810946359568
  21
10.60471738049
  31
0.11811023622
  0
LINE
  8
0
  10
5.810946359568
  20
10.60471738049
  30
0.11811023622
  11
5.810946359568
  21
10.85471738049
  31
0.11811023622
  0
LINE
  8
0
  10
5.810946359568
  20
10.85471738049
  30
0.11811023622
  11
6.047166832009
  21
10.85471738049
  31
0.11811023622
  0
LINE
  8
0
  10
6.047166832009
  20
10.85471738049
  30
0.11811023622
  11
6.047166832009
  21
11.72971738049
  31
0.11811023622
  0
LINE
  8
0
  10
6.047166832009
  20
11.72971738049
  30
0.11811023622
  11
5.653466044607
  21
10.85471738049
  31
0.11811023622
  0
LINE
  8
0
  10
5.653466044607
  20
10.85471738049
  30
0.11811023622
  11
5.653466044607
  21
10.60471738049
  31
0.11811023622
  0
LINE
  8
0
  10
5.653466044607
  20
10.60471738049
  30
0.11811023622
  11
5.422166832009
  21
10.22971738049
  31
0.11811023622
  0
LINE
  8
0
  10
5.422166832009
  20
10.22971738049
  30
0.11811023622
  11
4.797166832009
  21
9.72971738049
  31
0.11811023622
  0
LINE
  8
0
  10
4.797166832009
  20
9.72971738049
  30
0.11811023622
  11
5.085060532796
  21
9.72971738049
  31
0.11811023622
  0
LINE
  8
0
  10
5.085060532796
  20
9.72971738049
  30
0.11811023622
  11
5.085060532796
  21
9.47971738049
  31
0.11811023622
  0
LINE
  8
0
  10
5.159955609165
  20
2.874943265522
  30
0.11811023622
  11
5.73574301074
  21
2.874943265522
  31
0.11811023622
  0
LINE
  8
0
  10
5.73574301074
  20
2.874943265522
  30
0.11811023622
  11
5.73574301074
  21
3.124943265522
  31
0.11811023622
  0
LINE
  8
0
  10
5.73574301074
  20
3.124943265522
  30
0.11811023622
  11
6.023636711527
  21
3.124943265522
  31
0.11811023622
  0
LINE
  8
0
  10
6.023636711527
  20
3.124943265522
  30
0.11811023622
  11
6.023636711527
  21
3.819825155286
  31
0.11811023622
  0
LINE
  8
0
  10
6.023636711527
  20
3.819825155286
  30
0.11811023622
  11
6.122061908378
  21
3.819825155286
  31
0.11811023622
  0
LINE
  8
0
  10
6.122061908378
  20
3.819825155286
  30
0.11811023622
  11
6.122061908378
  21
3.999943265522
  31
0.11811023622
  0
LINE
  8
0
  10
6.122061908378
  20
3.999943265522
  30
0.11811023622
  11
5.885841435937
  21
3.999943265522
  31
0.11811023622
  0
LINE
  8
0
  10
5.885841435937
  20
3.999943265522
  30
0.11811023622
  11
5.885841435937
  21
4.249943265522
  31
0.11811023622
  0
LINE
  8
0
  10
5.885841435937
  20
4.249943265522
  30
0.11811023622
  11
6.122061908378
  21
4.249943265522
  31
0.11811023622
  0
LINE
  8
0
  10
6.122061908378
  20
4.249943265522
  30
0.11811023622
  11
6.122061908378
  21
5.124943265522
  31
0.11811023622
  0
LINE
  8
0
  10
6.122061908378
  20
5.124943265522
  30
0.11811023622
  11
5.728361120976
  21
4.249943265522
  31
0.11811023622
  0
LINE
  8
0
  10
5.728361120976
  20
4.249943265522
  30
0.11811023622
  11
5.728361120976
  21
3.999943265522
  31
0.11811023622
  0
LINE
  8
0
  10
5.728361120976
  20
3.999943265522
  30
0.11811023622
  11
5.497061908377
  21
3.624943265522
  31
0.11811023622
  0
LINE
  8
0
  10
5.497061908377
  20
3.624943265522
  30
0.11811023622
  11
4.872061908378
  21
3.124943265522
  31
0.11811023622
  0
LINE
  8
0
  10
4.872061908378
  20
3.124943265522
  30
0.11811023622
  11
5.159955609165
  21
3.124943265522
  31
0.11811023622
  0
LINE
  8
0
  10
5.159955609165
  20
3.124943265522
  30
0.11811023622
  11
5.159955609165
  21
2.874943265522
  31
0.11811023622
  0
CIRCLE
  8
0
  10
6.64812992126
  20
8.357283464567
  30
0.11811023622
  40
0.157480314961
  0
CIRCLE
  8
0
  10
6.64812992126
  20
6.857283464567
  30
0.11811023622
  40
0.157480314961
  0
LINE
  8
0
  10
5.965059055118
  20
6.327755905512
  30
0.11811023622
  11
6.64812992126
  21
6.327755905512
  31
0.11811023622
  0
ARC
  8
0
  10
6.64812992126
  20
6.857283464567
  30
0.11811023622
  40
0.529527559055
  50
270
  51
360
  0
LINE
  8
0
  10
7.177657480315
  20
6.857283464567
  30
0.11811023622
  11
7.845964566929
  21
6.857283464567
  31
0.11811023622
  0
LINE
  8
0
  10
7.845964566929
  20
6.857283464567
  30
0.11811023622
  11
7.845964566929
  21
3.029369346743
  31
0.11811023622
  0
ARC
  8
0
  10
8.555118110237
  20
2
  30
0.11811023622
  40
1.25
  50
124.563749071264
  51
180
  0
LINE
  8
0
  10
7.305118110237
  20
2
  30
0.11811023622
  11
8.430118110237
  21
2
  31
0.11811023622
  0
LINE
  8
0
  10
8.430118110237
  20
2
  30
0.11811023622
  11
8.430118110237
  21
4
  31
0.11811023622
  0
LINE
  8
0
  10
8.430118110237
  20
4
  30
0.11811023622
  11
8.680118110237
  21
4
  31
0.11811023622
  0
LINE
  8
0
  10
8.680118110237
  20
4
  30
0.11811023622
  11
8.680118110237
  21
2
  31
0.11811023622
  0
LINE
  8
0
  10
8.680118110237
  20
2
  30
0.11811023622
  11
9.805118110237
  21
2
  31
0.11811023622
  0
ARC
  8
0
  10
8.555118110237
  20
2
  30
0.11811023622
  40
1.25
  50
0
  51
55.436250928736
  0
LINE
  8
0
  10
9.264271653544
  20
3.029369346743
  30
0.11811023622
  11
9.264271653544
  21
8.357283464567
  31
0.11811023622
  0
LINE
  8
0
  10
9.264271653544
  20
8.357283464567
  30
0.11811023622
  11
7.177657480315
  21
8.357283464567
  31
0.11811023622
  0
ARC
  8
0
  10
6.64812992126
  20
8.357283464567
  30
0.11811023622
  40
0.529527559055
  50
0
  51
90
  0
LINE
  8
0
  10
6.64812992126
  20
8.886811023622
  30
0.11811023622
  11
5.965059055118
  21
8.886811023622
  31
0.11811023622
  0
LINE
  8
0
  10
5.965059055118
  20
8.886811023622
  30
0.11811023622
  11
5.965059055118
  21
6.327755905512
  31
0.11811023622
  0
CIRCLE
  8
0
  10
6.650590551181
  20
14.839566929134
  30
0.11811023622
  40
0.157480314961
  0
CIRCLE
  8
0
  10
6.650590551181
  20
13.339566929134
  30
0.11811023622
  40
0.157480314961
  0
LINE
  8
0
  10
5.96751968504
  20
12.810039370078
  30
0.11811023622
  11
6.650590551181
  21
12.810039370078
  31
0.11811023622
  0
ARC
  8
0
  10
6.650590551181
  20
13.339566929134
  30
0.11811023622
  40
0.529527559055
  50
270
  51
360
  0
LINE
  8
0
  10
7.180118110237
  20
13.339566929134
  30
0.11811023622
  11
7.848425196851
  21
13.339566929134
  31
0.11811023622
  0
LINE
  8
0
  10
7.848425196851
  20
13.339566929134
  30
0.11811023622
  11
7.848425196851
  21
9.51165281131
  31
0.11811023622
  0
ARC
  8
0
  10
8.557578740158
  20
8.482283464567
  30
0.11811023622
  40
1.25
  50
124.563749071264
  51
180
  0
LINE
  8
0
  10
7.307578740158
  20
8.482283464567
  30
0.11811023622
  11
8.432578740158
  21
8.482283464567
  31
0.11811023622
  0
LINE
  8
0
  10
8.432578740158
  20
8.482283464567
  30
0.11811023622
  11
8.432578740158
  21
10.482283464567
  31
0.11811023622
  0
LINE
  8
0
  10
8.432578740158
  20
10.482283464567
  30
0.11811023622
  11
8.682578740158
  21
10.482283464567
  31
0.11811023622
  0
LINE
  8
0
  10
8.682578740158
  20
10.482283464567
  30
0.11811023622
  11
8.682578740158
  21
8.482283464567
  31
0.11811023622
  0
LINE
  8
0
  10
8.682578740158
  20
8.482283464567
  30
0.11811023622
  11
9.807578740158
  21
8.482283464567
  31
0.11811023622
  0
ARC
  8
0
  10
8.557578740158
  20
8.482283464567
  30
0.11811023622
  40
1.25
  50
0
  51
55.436250928736
  0
LINE
  8
0
  10
9.266732283465
  20
9.51165281131
  30
0.11811023622
  11
9.266732283465
  21
14.839566929134
  31
0.11811023622
  0
LINE
  8
0
  10
9.266732283465
  20
14.839566929134
  30
0.11811023622
  11
7.180118110237
  21
14.839566929134
  31
0.11811023622
  0
ARC
  8
0
  10
6.650590551181
  20
14.839566929134
  30
0.11811023622
  40
0.529527559055
  50
0
  51
90
  0
LINE
  8
0
  10
6.650590551181
  20
15.369094488189
  30
0.11811023622
  11
5.96751968504
  21
15.369094488189
  31
0.11811023622
  0
LINE
  8
0
  10
5.96751968504
  20
15.369094488189
  30
0.11811023622
  11
5.96751968504
  21
12.810039370078
  31
0.11811023622
  0
CIRCLE
  8
0
  10
5.159448818898
  20
14.839566929134
  30
0.11811023622
  40
0.157480314961
  0
CIRCLE
  8
0
  10
5.159448818898
  20
13.339566929134
  30
0.11811023622
  40
0.157480314961
  0
LINE
  8
0
  10
5.159448818898
  20
12.810039370078
  30
0.11811023622
  11
5.84251968504
  21
12.810039370078
  31
0.11811023622
  0
LINE
  8
0
  10
5.84251968504
  20
12.810039370078
  30
0.11811023622
  11
5.84251968504
  21
15.369094488189
  31
0.11811023622
  0
LINE
  8
0
  10
5.84251968504
  20
15.369094488189
  30
0.11811023622
  11
5.159448818898
  21
15.369094488189
  31
0.11811023622
  0
ARC
  8
0
  10
5.159448818898
  20
14.839566929134
  30
0.11811023622
  40
0.529527559055
  50
90
  51
179.999999999998
  0
LINE
  8
0
  10
4.629921259843
  20
14.839566929134
  30
0.11811023622
  11
2.543307086614
  21
14.839566929134
  31
0.11811023622
  0
LINE
  8
0
  10
2.543307086614
  20
14.839566929134
  30
0.11811023622
  11
2.543307086614
  21
9.51165281131
  31
0.11811023622
  0
ARC
  8
0
  10
3.252460629921
  20
8.482283464567
  30
0.11811023622
  40
1.25
  50
124.563749071264
  51
180
  0
LINE
  8
0
  10
2.002460629921
  20
8.482283464567
  30
0.11811023622
  11
3.127460629921
  21
8.482283464567
  31
0.11811023622
  0
LINE
  8
0
  10
3.127460629921
  20
8.482283464567
  30
0.11811023622
  11
3.127460629921
  21
10.482283464567
  31
0.11811023622
  0
LINE
  8
0
  10
3.127460629921
  20
10.482283464567
  30
0.11811023622
  11
3.377460629921
  21
10.482283464567
  31
0.11811023622
  0
LINE
  8
0
  10
3.377460629921
  20
10.482283464567
  30
0.11811023622
  11
3.377460629921
  21
8.482283464567
  31
0.11811023622
  0
LINE
  8
0
  10
3.377460629921
  20
8.482283464567
  30
0.11811023622
  11
4.502460629921
  21
8.482283464567
  31
0.11811023622
  0
ARC
  8
0
  10
3.252460629921
  20
8.482283464567
  30
0.11811023622
  40
1.25
  50
0
  51
55.436250928736
  0
LINE
  8
0
  10
3.961614173229
  20
9.51165281131
  30
0.11811023622
  11
3.961614173229
  21
13.339566929134
  31
0.11811023622
  0
LINE
  8
0
  10
3.961614173229
  20
13.339566929134
  30
0.11811023622
  11
4.629921259843
  21
13.339566929134
  31
0.11811023622
  0
ARC
  8
0
  10
5.159448818898
  20
13.339566929134
  30
0.11811023622
  40
0.529527559055
  50
180
  51
270
  0
CIRCLE
  8
0
  10
5.156988188976
  20
8.357283464567
  30
0.11811023622
  40
0.157480314961
  0
CIRCLE
  8
0
  10
5.156988188976
  20
6.857283464567
  30
0.11811023622
  40
0.157480314961
  0
LINE
  8
0
  10
5.156988188976
  20
6.327755905512
  30
0.11811023622
  11
5.840059055118
  21
6.327755905512
  31
0.11811023622
  0
LINE
  8
0
  10
5.840059055118
  20
6.327755905512
  30
0.11811023622
  11
5.840059055118
  21
8.886811023622
  31
0.11811023622
  0
LINE
  8
0
  10
5.840059055118
  20
8.886811023622
  30
0.11811023622
  11
5.156988188976
  21
8.886811023622
  31
0.11811023622
  0
ARC
  8
0
  10
5.156988188976
  20
8.357283464567
  30
0.11811023622
  40
0.529527559055
  50
90
  51
179.999999999998
  0
LINE
  8
0
  10
4.627460629921
  20
8.357283464567
  30
0.11811023622
  11
2.540846456693
  21
8.357283464567
  31
0.11811023622
  0
LINE
  8
0
  10
2.540846456693
  20
8.357283464567
  30
0.11811023622
  11
2.540846456693
  21
3.029369346743
  31
0.11811023622
  0
ARC
  8
0
  10
3.25
  20
2
  30
0.11811023622
  40
1.25
  50
124.563749071264
  51
180
  0
LINE
  8
0
  10
2
  20
2
  30
0.11811023622
  11
3.125
  21
2
  31
0.11811023622
  0
LINE
  8
0
  10
3.125
  20
2
  30
0.11811023622
  11
3.125
  21
4
  31
0.11811023622
  0
LINE
  8
0
  10
3.125
  20
4
  30
0.11811023622
  11
3.375
  21
4
  31
0.11811023622
  0
LINE
  8
0
  10
3.375
  20
4
  30
0.11811023622
  11
3.375
  21
2
  31
0.11811023622
  0
LINE
  8
0
  10
3.375
  20
2
  30
0.11811023622
  11
4.5
  21
2
  31
0.11811023622
  0
ARC
  8
0
  10
3.25
  20
2
  30
0.11811023622
  40
1.25
  50
0
  51
55.436250928736
  0
LINE
  8
0
  10
3.959153543307
  20
3.029369346743
  30
0.11811023622
  11
3.959153543307
  21
6.857283464567
  31
0.11811023622
  0
LINE
  8
0
  10
3.959153543307
  20
6.857283464567
  30
0.11811023622
  11
4.627460629921
  21
6.857283464567
  31
0.11811023622
  0
ARC
  8
0
  10
5.156988188976
  20
6.857283464567
  30
0.11811023622
  40
0.529527559055
  50
180
  51
270
  0
ENDSEC
  0
EOF
