  0
SECTION
  2
HEADER
  9
$ACADVER
  1
AC1009
  9
$MEASUREMENT
  70
0
  9
$INSUNITS
  70
1
  9
$DIMLFAC
  40
1
  9
$INSBASE
  10
0.0
  20
0.0
  30
0.0
  9
$EXTMIN
  10
2
  20
2
  9
$EXTMAX
  10
19.876968503937
  20
14.186023622047
  9
$LIMMIN
  10
2
  20
2
  9
$LIMMAX
  10
19.876968503937
  20
14.186023622047
  9
$CLAYER
  8
0
  0
ENDSEC
  0
SECTION
  2
TABLES
  0
TABLE
  2
LTYPE
  70
2
  0
LTYPE
  2
CONTINUOUS
  70
65
  3
Solid line
  72
65
  73
0
  40
0
  0
LTYPE
  2
DASHED
  70
65
  3
 _ _ _ _ _ _ _ _ _ _ _ _ _ _ _ _ _ _ _ _ _ _
  72
65
  73
2
  40
0.07874015748
  49
0.03937007874
  49
-0.03937007874
  0
ENDTAB
  0
TABLE
  2
LAYER
  70
1
  0
LAYER
  2
0
  70
0
  62
7
  6
CONTINUOUS
  0
ENDTAB
  0
ENDSEC
  0
SECTION
  2
BLOCKS
  0
ENDSEC
  0
SECTION
  2
ENTITIES
  0
LINE
  8
0
  10
2.662401574803
  20
12.553149606299
  30
0.25
  11
2.662401574803
  21
12.435039370079
  31
0.25
  0
LINE
  8
0
  10
2.662401574803
  20
12.435039370079
  30
0.25
  11
2.496580316274
  21
12.435039370079
  31
0.25
  0
ARC
  8
0
  10
2.885826771654
  20
12.494094488189
  30
0.25
  40
0.393700787402
  50
188.626926558679
  51
291.373073441322
  0
LINE
  8
0
  10
3.029306766837
  20
12.127469610442
  30
0.25
  11
2.946396137572
  21
12.271075032816
  31
0.25
  0
LINE
  8
0
  10
2.946396137572
  20
12.271075032816
  30
0.25
  11
3.048682602586
  21
12.330130150926
  31
0.25
  0
LINE
  8
0
  10
3.048682602586
  20
12.330130150926
  30
0.25
  11
3.13159323185
  21
12.186524728552
  31
0.25
  0
ARC
  8
0
  10
2.885826771654
  20
12.494094488189
  30
0.25
  40
0.393700787402
  50
308.626926558679
  51
411.373073441321
  0
LINE
  8
0
  10
3.13159323185
  20
12.801664247826
  30
0.25
  11
3.048682602586
  21
12.658058825452
  31
0.25
  0
LINE
  8
0
  10
3.048682602586
  20
12.658058825452
  30
0.25
  11
2.946396137572
  21
12.717113943562
  31
0.25
  0
LINE
  8
0
  10
2.946396137572
  20
12.717113943562
  30
0.25
  11
3.029306766837
  21
12.860719365936
  31
0.25
  0
ARC
  8
0
  10
2.885826771654
  20
12.494094488189
  30
0.25
  40
0.393700787402
  50
68.626926558678
  51
171.373073441321
  0
LINE
  8
0
  10
2.496580316274
  20
12.553149606299
  30
0.25
  11
2.662401574803
  21
12.553149606299
  31
0.25
  0
LINE
  8
0
  10
15.439960629921
  20
4.375
  30
0.25
  11
15.439960629921
  21
2.375
  31
0.25
  0
LINE
  8
0
  10
15.439960629921
  20
2.375
  30
0.25
  11
16.070866141732
  21
2.375
  31
0.25
  0
LINE
  8
0
  10
16.070866141732
  20
2.375
  30
0.25
  11
16.070866141732
  21
2.119094488189
  31
0.25
  0
LINE
  8
0
  10
16.070866141732
  20
2.119094488189
  30
0.25
  11
16.513779527559
  21
2.119094488189
  31
0.25
  0
LINE
  8
0
  10
16.513779527559
  20
2.119094488189
  30
0.25
  11
16.513779527559
  21
2.375
  31
0.25
  0
LINE
  8
0
  10
16.513779527559
  20
2.375
  30
0.25
  11
18.366141732283
  21
2.375
  31
0.25
  0
LINE
  8
0
  10
18.366141732283
  20
2.375
  30
0.25
  11
18.366141732283
  21
2.119094488189
  31
0.25
  0
LINE
  8
0
  10
18.366141732283
  20
2.119094488189
  30
0.25
  11
18.80905511811
  21
2.119094488189
  31
0.25
  0
LINE
  8
0
  10
18.80905511811
  20
2.119094488189
  30
0.25
  11
18.80905511811
  21
2.375
  31
0.25
  0
LINE
  8
0
  10
18.80905511811
  20
2.375
  30
0.25
  11
19.439960629921
  21
2.375
  31
0.25
  0
LINE
  8
0
  10
19.439960629921
  20
2.375
  30
0.25
  11
19.439960629921
  21
4.375
  31
0.25
  0
ARC
  8
0
  10
17.439960629921
  20
4.375
  30
0.25
  40
2
  50
0
  51
81.509941940319
  0
LINE
  8
0
  10
17.735236220472
  20
6.353082992603
  30
0.25
  11
17.735236220472
  21
4.375
  31
0.25
  0
LINE
  8
0
  10
17.735236220472
  20
4.375
  30
0.25
  11
17.14468503937
  21
4.375
  31
0.25
  0
LINE
  8
0
  10
17.14468503937
  20
4.375
  30
0.25
  11
17.14468503937
  21
6.353082992603
  31
0.25
  0
ARC
  8
0
  10
17.439960629921
  20
4.375
  30
0.25
  40
2
  50
98.490058059682
  51
180
  0
LINE
  8
0
  10
2.662401574803
  20
10.656496062992
  30
0.25
  11
2.662401574803
  21
10.538385826772
  31
0.25
  0
LINE
  8
0
  10
2.662401574803
  20
10.538385826772
  30
0.25
  11
2.496580316274
  21
10.538385826772
  31
0.25
  0
ARC
  8
0
  10
2.885826771654
  20
10.597440944882
  30
0.25
  40
0.393700787402
  50
188.626926558679
  51
291.373073441322
  0
LINE
  8
0
  10
3.029306766836
  20
10.230816067135
  30
0.25
  11
2.946396137572
  21
10.374421489509
  31
0.25
  0
LINE
  8
0
  10
2.946396137572
  20
10.374421489509
  30
0.25
  11
3.048682602586
  21
10.433476607619
  31
0.25
  0
LINE
  8
0
  10
3.048682602586
  20
10.433476607619
  30
0.25
  11
3.13159323185
  21
10.289871185245
  31
0.25
  0
ARC
  8
0
  10
2.885826771654
  20
10.597440944882
  30
0.25
  40
0.393700787402
  50
308.626926558679
  51
411.373073441321
  0
LINE
  8
0
  10
3.13159323185
  20
10.905010704518
  30
0.25
  11
3.048682602586
  21
10.761405282145
  31
0.25
  0
LINE
  8
0
  10
3.048682602586
  20
10.761405282145
  30
0.25
  11
2.946396137572
  21
10.820460400255
  31
0.25
  0
LINE
  8
0
  10
2.946396137572
  20
10.820460400255
  30
0.25
  11
3.029306766836
  21
10.964065822629
  31
0.25
  0
ARC
  8
0
  10
2.885826771654
  20
10.597440944882
  30
0.25
  40
0.393700787402
  50
68.626926558678
  51
171.373073441321
  0
LINE
  8
0
  10
2.496580316274
  20
10.656496062992
  30
0.25
  11
2.662401574803
  21
10.656496062992
  31
0.25
  0
LINE
  8
0
  10
15.437410854733
  20
8.898299964602
  30
0.25
  11
15.437410854733
  21
6.898299964602
  31
0.25
  0
LINE
  8
0
  10
15.437410854733
  20
6.898299964602
  30
0.25
  11
16.068316366544
  21
6.898299964602
  31
0.25
  0
LINE
  8
0
  10
16.068316366544
  20
6.898299964602
  30
0.25
  11
16.068316366544
  21
6.642394452791
  31
0.25
  0
LINE
  8
0
  10
16.068316366544
  20
6.642394452791
  30
0.25
  11
16.51122975237
  21
6.642394452791
  31
0.25
  0
LINE
  8
0
  10
16.51122975237
  20
6.642394452791
  30
0.25
  11
16.51122975237
  21
6.898299964602
  31
0.25
  0
LINE
  8
0
  10
16.51122975237
  20
6.898299964602
  30
0.25
  11
18.363591957095
  21
6.898299964602
  31
0.25
  0
LINE
  8
0
  10
18.363591957095
  20
6.898299964602
  30
0.25
  11
18.363591957095
  21
6.642394452791
  31
0.25
  0
LINE
  8
0
  10
18.363591957095
  20
6.642394452791
  30
0.25
  11
18.806505342922
  21
6.642394452791
  31
0.25
  0
LINE
  8
0
  10
18.806505342922
  20
6.642394452791
  30
0.25
  11
18.806505342922
  21
6.898299964602
  31
0.25
  0
LINE
  8
0
  10
18.806505342922
  20
6.898299964602
  30
0.25
  11
19.437410854733
  21
6.898299964602
  31
0.25
  0
LINE
  8
0
  10
19.437410854733
  20
6.898299964602
  30
0.25
  11
19.437410854733
  21
8.898299964602
  31
0.25
  0
ARC
  8
0
  10
17.437410854733
  20
8.898299964602
  30
0.25
  40
2
  50
0
  51
81.509941940319
  0
LINE
  8
0
  10
17.732686445284
  20
10.876382957205
  30
0.25
  11
17.732686445284
  21
8.898299964602
  31
0.25
  0
LINE
  8
0
  10
17.732686445284
  20
8.898299964602
  30
0.25
  11
17.142135264181
  21
8.898299964602
  31
0.25
  0
LINE
  8
0
  10
17.142135264181
  20
8.898299964602
  30
0.25
  11
17.142135264181
  21
10.876382957205
  31
0.25
  0
ARC
  8
0
  10
17.437410854733
  20
8.898299964602
  30
0.25
  40
2
  50
98.490058059682
  51
180
  0
CIRCLE
  8
0
  10
10.825787401575
  20
13.228692913386
  30
0.25
  40
0.157480314961
  0
CIRCLE
  8
0
  10
11.436023622047
  20
13.838929133858
  30
0.25
  40
0.05905511811
  0
CIRCLE
  8
0
  10
10.215551181102
  20
13.838929133858
  30
0.25
  40
0.05905511811
  0
CIRCLE
  8
0
  10
11.436023622047
  20
12.618456692913
  30
0.25
  40
0.05905511811
  0
CIRCLE
  8
0
  10
10.215551181102
  20
12.618456692913
  30
0.25
  40
0.05905511811
  0
LINE
  8
0
  10
9.939960629921
  20
14.114519685039
  30
0.25
  11
9.939960629921
  21
12.342519685039
  31
0.25
  0
LINE
  8
0
  10
9.939960629921
  20
12.342519685039
  30
0.25
  11
11.711614173228
  21
12.342519685039
  31
0.25
  0
LINE
  8
0
  10
11.711614173228
  20
12.342519685039
  30
0.25
  11
11.711614173228
  21
14.114519685039
  31
0.25
  0
LINE
  8
0
  10
11.711614173228
  20
14.114519685039
  30
0.25
  11
9.939960629921
  21
14.114519685039
  31
0.25
  0
CIRCLE
  8
0
  10
8.929133858268
  20
13.228692913386
  30
0.25
  40
0.157480314961
  0
CIRCLE
  8
0
  10
9.53937007874
  20
13.838929133858
  30
0.25
  40
0.05905511811
  0
CIRCLE
  8
0
  10
8.318897637795
  20
13.838929133858
  30
0.25
  40
0.05905511811
  0
CIRCLE
  8
0
  10
9.53937007874
  20
12.618456692913
  30
0.25
  40
0.05905511811
  0
CIRCLE
  8
0
  10
8.318897637795
  20
12.618456692913
  30
0.25
  40
0.05905511811
  0
LINE
  8
0
  10
8.043307086614
  20
14.114519685039
  30
0.25
  11
8.043307086614
  21
12.342519685039
  31
0.25
  0
LINE
  8
0
  10
8.043307086614
  20
12.342519685039
  30
0.25
  11
9.814960629921
  21
12.342519685039
  31
0.25
  0
LINE
  8
0
  10
9.814960629921
  20
12.342519685039
  30
0.25
  11
9.814960629921
  21
14.114519685039
  31
0.25
  0
LINE
  8
0
  10
9.814960629921
  20
14.114519685039
  30
0.25
  11
8.043307086614
  21
14.114519685039
  31
0.25
  0
CIRCLE
  8
0
  10
12.722440944882
  20
13.228692913386
  30
0.25
  40
0.157480314961
  0
CIRCLE
  8
0
  10
13.332677165354
  20
13.838929133858
  30
0.25
  40
0.05905511811
  0
CIRCLE
  8
0
  10
12.112204724409
  20
13.838929133858
  30
0.25
  40
0.05905511811
  0
CIRCLE
  8
0
  10
13.332677165354
  20
12.618456692913
  30
0.25
  40
0.05905511811
  0
CIRCLE
  8
0
  10
12.112204724409
  20
12.618456692913
  30
0.25
  40
0.05905511811
  0
LINE
  8
0
  10
11.836614173228
  20
14.114519685039
  30
0.25
  11
11.836614173228
  21
12.342519685039
  31
0.25
  0
LINE
  8
0
  10
11.836614173228
  20
12.342519685039
  30
0.25
  11
13.608267716535
  21
12.342519685039
  31
0.25
  0
LINE
  8
0
  10
13.608267716535
  20
12.342519685039
  30
0.25
  11
13.608267716535
  21
14.114519685039
  31
0.25
  0
LINE
  8
0
  10
13.608267716535
  20
14.114519685039
  30
0.25
  11
11.836614173228
  21
14.114519685039
  31
0.25
  0
CIRCLE
  8
0
  10
16.001968503937
  20
12.092519685039
  30
0.25
  40
1.25
  0
CIRCLE
  8
0
  10
16.001968503937
  20
12.092519685039
  30
0.25
  40
0.157480314961
  0
LINE
  8
0
  10
15.942913385827
  20
12.429625984252
  30
0.25
  11
16.061023622047
  21
12.429625984252
  31
0.25
  0
LINE
  8
0
  10
16.061023622047
  20
12.429625984252
  30
0.25
  11
16.061023622047
  21
13.005413385827
  31
0.25
  0
LINE
  8
0
  10
16.061023622047
  20
13.005413385827
  30
0.25
  11
15.942913385827
  21
13.005413385827
  31
0.25
  0
LINE
  8
0
  10
15.942913385827
  20
13.005413385827
  30
0.25
  11
15.942913385827
  21
12.429625984252
  31
0.25
  0
LINE
  8
0
  10
15.739553444098
  20
11.872823302926
  30
0.25
  11
15.680498325988
  21
11.97510976794
  31
0.25
  0
LINE
  8
0
  10
15.680498325988
  20
11.97510976794
  30
0.25
  11
15.181851809045
  21
11.687216067153
  31
0.25
  0
LINE
  8
0
  10
15.181851809045
  20
11.687216067153
  30
0.25
  11
15.240906927155
  21
11.584929602139
  31
0.25
  0
LINE
  8
0
  10
15.240906927155
  20
11.584929602139
  30
0.25
  11
15.739553444098
  21
11.872823302926
  31
0.25
  0
LINE
  8
0
  10
16.323438681886
  20
11.97510976794
  30
0.25
  11
16.264383563776
  21
11.872823302926
  31
0.25
  0
LINE
  8
0
  10
16.264383563776
  20
11.872823302926
  30
0.25
  11
16.763030080719
  21
11.584929602139
  31
0.25
  0
LINE
  8
0
  10
16.763030080719
  20
11.584929602139
  30
0.25
  11
16.822085198829
  21
11.687216067153
  31
0.25
  0
LINE
  8
0
  10
16.822085198829
  20
11.687216067153
  30
0.25
  11
16.323438681886
  21
11.97510976794
  31
0.25
  0
CIRCLE
  8
0
  10
18.626968503937
  20
12.092519685039
  30
0.25
  40
1.25
  0
CIRCLE
  8
0
  10
18.626968503937
  20
12.092519685039
  30
0.25
  40
0.09842519685
  0
LINE
  8
0
  10
18.567913385827
  20
12.429625984252
  30
0.25
  11
18.686023622047
  21
12.429625984252
  31
0.25
  0
LINE
  8
0
  10
18.686023622047
  20
12.429625984252
  30
0.25
  11
18.686023622047
  21
13.005413385827
  31
0.25
  0
LINE
  8
0
  10
18.686023622047
  20
13.005413385827
  30
0.25
  11
18.567913385827
  21
13.005413385827
  31
0.25
  0
LINE
  8
0
  10
18.567913385827
  20
13.005413385827
  30
0.25
  11
18.567913385827
  21
12.429625984252
  31
0.25
  0
LINE
  8
0
  10
18.364553444098
  20
11.872823302926
  30
0.25
  11
18.305498325988
  21
11.97510976794
  31
0.25
  0
LINE
  8
0
  10
18.305498325988
  20
11.97510976794
  30
0.25
  11
17.806851809045
  21
11.687216067153
  31
0.25
  0
LINE
  8
0
  10
17.806851809045
  20
11.687216067153
  30
0.25
  11
17.865906927155
  21
11.584929602139
  31
0.25
  0
LINE
  8
0
  10
17.865906927155
  20
11.584929602139
  30
0.25
  11
18.364553444098
  21
11.872823302926
  31
0.25
  0
LINE
  8
0
  10
18.948438681886
  20
11.97510976794
  30
0.25
  11
18.889383563776
  21
11.872823302926
  31
0.25
  0
LINE
  8
0
  10
18.889383563776
  20
11.872823302926
  30
0.25
  11
19.388030080719
  21
11.584929602139
  31
0.25
  0
LINE
  8
0
  10
19.388030080719
  20
11.584929602139
  30
0.25
  11
19.447085198829
  21
11.687216067153
  31
0.25
  0
LINE
  8
0
  10
19.447085198829
  20
11.687216067153
  30
0.25
  11
18.948438681886
  21
11.97510976794
  31
0.25
  0
LINE
  8
0
  10
11.945866141732
  20
8.252952755906
  30
0.25
  11
11.945866141732
  21
7.997047244095
  31
0.25
  0
LINE
  8
0
  10
11.945866141732
  20
7.997047244095
  30
0.25
  11
12.388779527559
  21
7.997047244095
  31
0.25
  0
LINE
  8
0
  10
12.388779527559
  20
7.997047244095
  30
0.25
  11
12.388779527559
  21
8.252952755906
  31
0.25
  0
LINE
  8
0
  10
12.388779527559
  20
8.252952755906
  30
0.25
  11
11.945866141732
  21
8.252952755906
  31
0.25
  0
LINE
  8
0
  10
14.241141732284
  20
8.252952755906
  30
0.25
  11
14.241141732284
  21
7.997047244095
  31
0.25
  0
LINE
  8
0
  10
14.241141732284
  20
7.997047244095
  30
0.25
  11
14.68405511811
  21
7.997047244095
  31
0.25
  0
LINE
  8
0
  10
14.68405511811
  20
7.997047244095
  30
0.25
  11
14.68405511811
  21
8.252952755906
  31
0.25
  0
LINE
  8
0
  10
14.68405511811
  20
8.252952755906
  30
0.25
  11
14.241141732284
  21
8.252952755906
  31
0.25
  0
LINE
  8
0
  10
12.108267716535
  20
9.75
  30
0.25
  11
12.108267716535
  21
8.75
  31
0.25
  0
ARC
  8
0
  10
12.167322834646
  20
8.75
  30
0.25
  40
0.05905511811
  50
180
  51
360
  0
LINE
  8
0
  10
12.226377952756
  20
8.75
  30
0.25
  11
12.226377952756
  21
9.75
  31
0.25
  0
ARC
  8
0
  10
12.167322834646
  20
9.75
  30
0.25
  40
0.05905511811
  50
0
  51
180
  0
ARC
  8
0
  10
14.462598425196
  20
9.75
  30
0.25
  40
0.05905511811
  50
0
  51
180
  0
LINE
  8
0
  10
14.403543307086
  20
9.75
  30
0.25
  11
14.403543307086
  21
8.75
  31
0.25
  0
ARC
  8
0
  10
14.462598425196
  20
8.75
  30
0.25
  40
0.05905511811
  50
180
  51
360
  0
LINE
  8
0
  10
14.521653543307
  20
8.75
  30
0.25
  11
14.521653543307
  21
9.75
  31
0.25
  0
ARC
  8
0
  10
12.167322834645
  20
7.5
  30
0.25
  40
0.05905511811
  50
0
  51
180
  0
LINE
  8
0
  10
12.108267716535
  20
7.5
  30
0.25
  11
12.108267716535
  21
6.5
  31
0.25
  0
ARC
  8
0
  10
12.167322834645
  20
6.5
  30
0.25
  40
0.05905511811
  50
180
  51
360
  0
LINE
  8
0
  10
12.226377952755
  20
6.5
  30
0.25
  11
12.226377952755
  21
7.5
  31
0.25
  0
ARC
  8
0
  10
14.462598425196
  20
7.5
  30
0.25
  40
0.05905511811
  50
0
  51
180
  0
LINE
  8
0
  10
14.403543307086
  20
7.5
  30
0.25
  11
14.403543307086
  21
6.5
  31
0.25
  0
ARC
  8
0
  10
14.462598425196
  20
6.5
  30
0.25
  40
0.05905511811
  50
180
  51
360
  0
LINE
  8
0
  10
14.521653543306
  20
6.5
  30
0.25
  11
14.521653543306
  21
7.5
  31
0.25
  0
LINE
  8
0
  10
15.314960629921
  20
6.125
  30
0.25
  11
15.314960629921
  21
10.125
  31
0.25
  0
LINE
  8
0
  10
15.314960629921
  20
10.125
  30
0.25
  11
11.314960629921
  21
10.125
  31
0.25
  0
LINE
  8
0
  10
11.314960629921
  20
10.125
  30
0.25
  11
11.314960629921
  21
6.125
  31
0.25
  0
LINE
  8
0
  10
11.314960629921
  20
6.125
  30
0.25
  11
15.314960629921
  21
6.125
  31
0.25
  0
LINE
  8
0
  10
11.945866141732
  20
4.127952755906
  30
0.25
  11
11.945866141732
  21
3.872047244095
  31
0.25
  0
LINE
  8
0
  10
11.945866141732
  20
3.872047244095
  30
0.25
  11
12.388779527559
  21
3.872047244095
  31
0.25
  0
LINE
  8
0
  10
12.388779527559
  20
3.872047244095
  30
0.25
  11
12.388779527559
  21
4.127952755906
  31
0.25
  0
LINE
  8
0
  10
12.388779527559
  20
4.127952755906
  30
0.25
  11
11.945866141732
  21
4.127952755906
  31
0.25
  0
LINE
  8
0
  10
14.241141732284
  20
4.127952755906
  30
0.25
  11
14.241141732284
  21
3.872047244095
  31
0.25
  0
LINE
  8
0
  10
14.241141732284
  20
3.872047244095
  30
0.25
  11
14.68405511811
  21
3.872047244095
  31
0.25
  0
LINE
  8
0
  10
14.68405511811
  20
3.872047244095
  30
0.25
  11
14.68405511811
  21
4.127952755906
  31
0.25
  0
LINE
  8
0
  10
14.68405511811
  20
4.127952755906
  30
0.25
  11
14.241141732284
  21
4.127952755906
  31
0.25
  0
ARC
  8
0
  10
12.167322834645
  20
3.375
  30
0.25
  40
0.05905511811
  50
0
  51
180
  0
LINE
  8
0
  10
12.108267716535
  20
3.375
  30
0.25
  11
12.108267716535
  21
2.375
  31
0.25
  0
ARC
  8
0
  10
12.167322834645
  20
2.375
  30
0.25
  40
0.05905511811
  50
180
  51
360
  0
LINE
  8
0
  10
12.226377952755
  20
2.375
  30
0.25
  11
12.226377952755
  21
3.375
  31
0.25
  0
ARC
  8
0
  10
14.462598425196
  20
3.375
  30
0.25
  40
0.05905511811
  50
0
  51
180
  0
LINE
  8
0
  10
14.403543307086
  20
3.375
  30
0.25
  11
14.403543307086
  21
2.375
  31
0.25
  0
ARC
  8
0
  10
14.462598425196
  20
2.375
  30
0.25
  40
0.05905511811
  50
180
  51
360
  0
LINE
  8
0
  10
14.521653543306
  20
2.375
  30
0.25
  11
14.521653543306
  21
3.375
  31
0.25
  0
ARC
  8
0
  10
14.462598425196
  20
5.625
  30
0.25
  40
0.05905511811
  50
0
  51
180
  0
LINE
  8
0
  10
14.403543307086
  20
5.625
  30
0.25
  11
14.403543307086
  21
4.625
  31
0.25
  0
ARC
  8
0
  10
14.462598425196
  20
4.625
  30
0.25
  40
0.05905511811
  50
180
  51
360
  0
LINE
  8
0
  10
14.521653543307
  20
4.625
  30
0.25
  11
14.521653543307
  21
5.625
  31
0.25
  0
LINE
  8
0
  10
12.108267716535
  20
5.625
  30
0.25
  11
12.108267716535
  21
4.625
  31
0.25
  0
ARC
  8
0
  10
12.167322834646
  20
4.625
  30
0.25
  40
0.05905511811
  50
180
  51
360
  0
LINE
  8
0
  10
12.226377952756
  20
4.625
  30
0.25
  11
12.226377952756
  21
5.625
  31
0.25
  0
ARC
  8
0
  10
12.167322834646
  20
5.625
  30
0.25
  40
0.05905511811
  50
0
  51
180
  0
LINE
  8
0
  10
15.314960629921
  20
2
  30
0.25
  11
15.314960629921
  21
6
  31
0.25
  0
LINE
  8
0
  10
15.314960629921
  20
6
  30
0.25
  11
11.314960629921
  21
6
  31
0.25
  0
LINE
  8
0
  10
11.314960629921
  20
6
  30
0.25
  11
11.314960629921
  21
2
  31
0.25
  0
LINE
  8
0
  10
11.314960629921
  20
2
  30
0.25
  11
15.314960629921
  21
2
  31
0.25
  0
LINE
  8
0
  10
8.10531496063
  20
11.676181102362
  30
0.25
  11
8.361220472441
  21
11.676181102362
  31
0.25
  0
LINE
  8
0
  10
8.361220472441
  20
11.676181102362
  30
0.25
  11
8.361220472441
  21
12.119094488189
  31
0.25
  0
LINE
  8
0
  10
8.361220472441
  20
12.119094488189
  30
0.25
  11
8.10531496063
  21
12.119094488189
  31
0.25
  0
LINE
  8
0
  10
8.10531496063
  20
12.119094488189
  30
0.25
  11
8.10531496063
  21
11.676181102362
  31
0.25
  0
LINE
  8
0
  10
8.10531496063
  20
10.347440944882
  30
0.25
  11
8.361220472441
  21
10.347440944882
  31
0.25
  0
LINE
  8
0
  10
8.361220472441
  20
10.347440944882
  30
0.25
  11
8.361220472441
  21
10.790354330709
  31
0.25
  0
LINE
  8
0
  10
8.361220472441
  20
10.790354330709
  30
0.25
  11
8.10531496063
  21
10.790354330709
  31
0.25
  0
LINE
  8
0
  10
8.10531496063
  20
10.790354330709
  30
0.25
  11
8.10531496063
  21
10.347440944882
  31
0.25
  0
LINE
  8
0
  10
9.693897637795
  20
10.347440944882
  30
0.25
  11
9.949803149606
  21
10.347440944882
  31
0.25
  0
LINE
  8
0
  10
9.949803149606
  20
10.347440944882
  30
0.25
  11
9.949803149606
  21
10.790354330709
  31
0.25
  0
LINE
  8
0
  10
9.949803149606
  20
10.790354330709
  30
0.25
  11
9.693897637795
  21
10.790354330709
  31
0.25
  0
LINE
  8
0
  10
9.693897637795
  20
10.790354330709
  30
0.25
  11
9.693897637795
  21
10.347440944882
  31
0.25
  0
LINE
  8
0
  10
9.693897637795
  20
11.676181102362
  30
0.25
  11
9.949803149606
  21
11.676181102362
  31
0.25
  0
LINE
  8
0
  10
9.949803149606
  20
11.676181102362
  30
0.25
  11
9.949803149606
  21
12.119094488189
  31
0.25
  0
LINE
  8
0
  10
9.949803149606
  20
12.119094488189
  30
0.25
  11
9.693897637795
  21
12.119094488189
  31
0.25
  0
LINE
  8
0
  10
9.693897637795
  20
12.119094488189
  30
0.25
  11
9.693897637795
  21
11.676181102362
  31
0.25
  0
LINE
  8
0
  10
8.043307086614
  20
12.217519685039
  30
0.25
  11
8.043307086614
  21
10.249015748031
  31
0.25
  0
LINE
  8
0
  10
8.043307086614
  20
10.249015748031
  30
0.25
  11
10.011811023622
  21
10.249015748031
  31
0.25
  0
LINE
  8
0
  10
10.011811023622
  20
10.249015748031
  30
0.25
  11
10.011811023622
  21
12.217519685039
  31
0.25
  0
LINE
  8
0
  10
10.011811023622
  20
12.217519685039
  30
0.25
  11
8.043307086614
  21
12.217519685039
  31
0.25
  0
LINE
  8
0
  10
10.198818897638
  20
11.676181102362
  30
0.25
  11
10.454724409449
  21
11.676181102362
  31
0.25
  0
LINE
  8
0
  10
10.454724409449
  20
11.676181102362
  30
0.25
  11
10.454724409449
  21
12.119094488189
  31
0.25
  0
LINE
  8
0
  10
10.454724409449
  20
12.119094488189
  30
0.25
  11
10.198818897638
  21
12.119094488189
  31
0.25
  0
LINE
  8
0
  10
10.198818897638
  20
12.119094488189
  30
0.25
  11
10.198818897638
  21
11.676181102362
  31
0.25
  0
LINE
  8
0
  10
10.198818897638
  20
10.347440944882
  30
0.25
  11
10.454724409449
  21
10.347440944882
  31
0.25
  0
LINE
  8
0
  10
10.454724409449
  20
10.347440944882
  30
0.25
  11
10.454724409449
  21
10.790354330709
  31
0.25
  0
LINE
  8
0
  10
10.454724409449
  20
10.790354330709
  30
0.25
  11
10.198818897638
  21
10.790354330709
  31
0.25
  0
LINE
  8
0
  10
10.198818897638
  20
10.790354330709
  30
0.25
  11
10.198818897638
  21
10.347440944882
  31
0.25
  0
LINE
  8
0
  10
11.787401574803
  20
10.347440944882
  30
0.25
  11
12.043307086614
  21
10.347440944882
  31
0.25
  0
LINE
  8
0
  10
12.043307086614
  20
10.347440944882
  30
0.25
  11
12.043307086614
  21
10.790354330709
  31
0.25
  0
LINE
  8
0
  10
12.043307086614
  20
10.790354330709
  30
0.25
  11
11.787401574803
  21
10.790354330709
  31
0.25
  0
LINE
  8
0
  10
11.787401574803
  20
10.790354330709
  30
0.25
  11
11.787401574803
  21
10.347440944882
  31
0.25
  0
LINE
  8
0
  10
11.787401574803
  20
11.676181102362
  30
0.25
  11
12.043307086614
  21
11.676181102362
  31
0.25
  0
LINE
  8
0
  10
12.043307086614
  20
11.676181102362
  30
0.25
  11
12.043307086614
  21
12.119094488189
  31
0.25
  0
LINE
  8
0
  10
12.043307086614
  20
12.119094488189
  30
0.25
  11
11.787401574803
  21
12.119094488189
  31
0.25
  0
LINE
  8
0
  10
11.787401574803
  20
12.119094488189
  30
0.25
  11
11.787401574803
  21
11.676181102362
  31
0.25
  0
LINE
  8
0
  10
10.136811023622
  20
12.217519685039
  30
0.25
  11
10.136811023622
  21
10.249015748031
  31
0.25
  0
LINE
  8
0
  10
10.136811023622
  20
10.249015748031
  30
0.25
  11
12.10531496063
  21
10.249015748031
  31
0.25
  0
LINE
  8
0
  10
12.10531496063
  20
10.249015748031
  30
0.25
  11
12.10531496063
  21
12.217519685039
  31
0.25
  0
LINE
  8
0
  10
12.10531496063
  20
12.217519685039
  30
0.25
  11
10.136811023622
  21
12.217519685039
  31
0.25
  0
LINE
  8
0
  10
8.299212598425
  20
8.59842519685
  30
0.25
  11
8.555118110236
  21
8.59842519685
  31
0.25
  0
LINE
  8
0
  10
8.555118110236
  20
8.59842519685
  30
0.25
  11
8.555118110236
  21
9.041338582677
  31
0.25
  0
LINE
  8
0
  10
8.555118110236
  20
9.041338582677
  30
0.25
  11
8.299212598425
  21
9.041338582677
  31
0.25
  0
LINE
  8
0
  10
8.299212598425
  20
9.041338582677
  30
0.25
  11
8.299212598425
  21
8.59842519685
  31
0.25
  0
LINE
  8
0
  10
8.299212598425
  20
7.26968503937
  30
0.25
  11
8.555118110236
  21
7.26968503937
  31
0.25
  0
LINE
  8
0
  10
8.555118110236
  20
7.26968503937
  30
0.25
  11
8.555118110236
  21
7.712598425197
  31
0.25
  0
LINE
  8
0
  10
8.555118110236
  20
7.712598425197
  30
0.25
  11
8.299212598425
  21
7.712598425197
  31
0.25
  0
LINE
  8
0
  10
8.299212598425
  20
7.712598425197
  30
0.25
  11
8.299212598425
  21
7.26968503937
  31
0.25
  0
LINE
  8
0
  10
9.887795275591
  20
7.26968503937
  30
0.25
  11
10.143700787402
  21
7.26968503937
  31
0.25
  0
LINE
  8
0
  10
10.143700787402
  20
7.26968503937
  30
0.25
  11
10.143700787402
  21
7.712598425197
  31
0.25
  0
LINE
  8
0
  10
10.143700787402
  20
7.712598425197
  30
0.25
  11
9.887795275591
  21
7.712598425197
  31
0.25
  0
LINE
  8
0
  10
9.887795275591
  20
7.712598425197
  30
0.25
  11
9.887795275591
  21
7.26968503937
  31
0.25
  0
LINE
  8
0
  10
9.887795275591
  20
8.59842519685
  30
0.25
  11
10.143700787402
  21
8.59842519685
  31
0.25
  0
LINE
  8
0
  10
10.143700787402
  20
8.59842519685
  30
0.25
  11
10.143700787402
  21
9.041338582677
  31
0.25
  0
LINE
  8
0
  10
10.143700787402
  20
9.041338582677
  30
0.25
  11
9.887795275591
  21
9.041338582677
  31
0.25
  0
LINE
  8
0
  10
9.887795275591
  20
9.041338582677
  30
0.25
  11
9.887795275591
  21
8.59842519685
  31
0.25
  0
LINE
  8
0
  10
11.189960629921
  20
10.124015748031
  30
0.25
  11
8.043307086614
  21
10.124015748031
  31
0.25
  0
LINE
  8
0
  10
8.043307086614
  20
10.124015748031
  30
0.25
  11
8.043307086614
  21
6.187007874016
  31
0.25
  0
LINE
  8
0
  10
8.043307086614
  20
6.187007874016
  30
0.25
  11
11.189960629921
  21
6.187007874016
  31
0.25
  0
LINE
  8
0
  10
11.189960629921
  20
6.187007874016
  30
0.25
  11
11.189960629921
  21
10.124015748031
  31
0.25
  0
LINE
  8
0
  10
8.23031496063
  20
9.523622047244
  30
0.25
  11
10.666830708661
  21
9.523622047244
  31
0.25
  0
ARC
  8
0
  10
10.666830708661
  20
9.582677165354
  30
0.25
  40
0.05905511811
  50
270
  51
450
  0
LINE
  8
0
  10
10.666830708661
  20
9.641732283465
  30
0.25
  11
8.23031496063
  21
9.641732283465
  31
0.25
  0
ARC
  8
0
  10
8.23031496063
  20
9.582677165354
  30
0.25
  40
0.05905511811
  50
90
  51
270
  0
ARC
  8
0
  10
10.666830708661
  20
6.728346456693
  30
0.25
  40
0.05905511811
  50
270
  51
450
  0
LINE
  8
0
  10
10.666830708661
  20
6.787401574803
  30
0.25
  11
8.23031496063
  21
6.787401574803
  31
0.25
  0
ARC
  8
0
  10
8.23031496063
  20
6.728346456693
  30
0.25
  40
0.05905511811
  50
90
  51
270
  0
LINE
  8
0
  10
8.23031496063
  20
6.669291338583
  30
0.25
  11
10.666830708661
  21
6.669291338583
  31
0.25
  0
LINE
  8
0
  10
5.027559055118
  20
12.660433070866
  30
0.25
  11
5.283464566929
  21
12.660433070866
  31
0.25
  0
LINE
  8
0
  10
5.283464566929
  20
12.660433070866
  30
0.25
  11
5.283464566929
  21
13.103346456693
  31
0.25
  0
LINE
  8
0
  10
5.283464566929
  20
13.103346456693
  30
0.25
  11
5.027559055118
  21
13.103346456693
  31
0.25
  0
LINE
  8
0
  10
5.027559055118
  20
13.103346456693
  30
0.25
  11
5.027559055118
  21
12.660433070866
  31
0.25
  0
LINE
  8
0
  10
5.027559055118
  20
11.331692913386
  30
0.25
  11
5.283464566929
  21
11.331692913386
  31
0.25
  0
LINE
  8
0
  10
5.283464566929
  20
11.331692913386
  30
0.25
  11
5.283464566929
  21
11.774606299213
  31
0.25
  0
LINE
  8
0
  10
5.283464566929
  20
11.774606299213
  30
0.25
  11
5.027559055118
  21
11.774606299213
  31
0.25
  0
LINE
  8
0
  10
5.027559055118
  20
11.774606299213
  30
0.25
  11
5.027559055118
  21
11.331692913386
  31
0.25
  0
LINE
  8
0
  10
6.616141732283
  20
11.331692913386
  30
0.25
  11
6.872047244095
  21
11.331692913386
  31
0.25
  0
LINE
  8
0
  10
6.872047244095
  20
11.331692913386
  30
0.25
  11
6.872047244095
  21
11.774606299213
  31
0.25
  0
LINE
  8
0
  10
6.872047244095
  20
11.774606299213
  30
0.25
  11
6.616141732283
  21
11.774606299213
  31
0.25
  0
LINE
  8
0
  10
6.616141732283
  20
11.774606299213
  30
0.25
  11
6.616141732283
  21
11.331692913386
  31
0.25
  0
LINE
  8
0
  10
6.616141732283
  20
12.660433070866
  30
0.25
  11
6.872047244095
  21
12.660433070866
  31
0.25
  0
LINE
  8
0
  10
6.872047244095
  20
12.660433070866
  30
0.25
  11
6.872047244095
  21
13.103346456693
  31
0.25
  0
LINE
  8
0
  10
6.872047244095
  20
13.103346456693
  30
0.25
  11
6.616141732283
  21
13.103346456693
  31
0.25
  0
LINE
  8
0
  10
6.616141732283
  20
13.103346456693
  30
0.25
  11
6.616141732283
  21
12.660433070866
  31
0.25
  0
LINE
  8
0
  10
7.918307086614
  20
14.186023622047
  30
0.25
  11
4.771653543307
  21
14.186023622047
  31
0.25
  0
LINE
  8
0
  10
4.771653543307
  20
14.186023622047
  30
0.25
  11
4.771653543307
  21
10.249015748031
  31
0.25
  0
LINE
  8
0
  10
4.771653543307
  20
10.249015748031
  30
0.25
  11
7.918307086614
  21
10.249015748031
  31
0.25
  0
LINE
  8
0
  10
7.918307086614
  20
10.249015748031
  30
0.25
  11
7.918307086614
  21
14.186023622047
  31
0.25
  0
LINE
  8
0
  10
4.958661417323
  20
13.58562992126
  30
0.25
  11
7.395177165354
  21
13.58562992126
  31
0.25
  0
ARC
  8
0
  10
7.395177165354
  20
13.64468503937
  30
0.25
  40
0.05905511811
  50
270
  51
450
  0
LINE
  8
0
  10
7.395177165354
  20
13.70374015748
  30
0.25
  11
4.958661417323
  21
13.70374015748
  31
0.25
  0
ARC
  8
0
  10
4.958661417323
  20
13.64468503937
  30
0.25
  40
0.05905511811
  50
90
  51
270
  0
ARC
  8
0
  10
7.395177165354
  20
10.790354330709
  30
0.25
  40
0.05905511811
  50
270
  51
450
  0
LINE
  8
0
  10
7.395177165354
  20
10.849409448819
  30
0.25
  11
4.958661417323
  21
10.849409448819
  31
0.25
  0
ARC
  8
0
  10
4.958661417323
  20
10.790354330709
  30
0.25
  40
0.05905511811
  50
90
  51
270
  0
LINE
  8
0
  10
4.958661417323
  20
10.731299212598
  30
0.25
  11
7.395177165354
  21
10.731299212598
  31
0.25
  0
LINE
  8
0
  10
5.027559055118
  20
8.59842519685
  30
0.25
  11
5.283464566929
  21
8.59842519685
  31
0.25
  0
LINE
  8
0
  10
5.283464566929
  20
8.59842519685
  30
0.25
  11
5.283464566929
  21
9.041338582677
  31
0.25
  0
LINE
  8
0
  10
5.283464566929
  20
9.041338582677
  30
0.25
  11
5.027559055118
  21
9.041338582677
  31
0.25
  0
LINE
  8
0
  10
5.027559055118
  20
9.041338582677
  30
0.25
  11
5.027559055118
  21
8.59842519685
  31
0.25
  0
LINE
  8
0
  10
5.027559055118
  20
7.26968503937
  30
0.25
  11
5.283464566929
  21
7.26968503937
  31
0.25
  0
LINE
  8
0
  10
5.283464566929
  20
7.26968503937
  30
0.25
  11
5.283464566929
  21
7.712598425197
  31
0.25
  0
LINE
  8
0
  10
5.283464566929
  20
7.712598425197
  30
0.25
  11
5.027559055118
  21
7.712598425197
  31
0.25
  0
LINE
  8
0
  10
5.027559055118
  20
7.712598425197
  30
0.25
  11
5.027559055118
  21
7.26968503937
  31
0.25
  0
LINE
  8
0
  10
6.616141732283
  20
7.26968503937
  30
0.25
  11
6.872047244095
  21
7.26968503937
  31
0.25
  0
LINE
  8
0
  10
6.872047244094
  20
7.26968503937
  30
0.25
  11
6.872047244094
  21
7.712598425197
  31
0.25
  0
LINE
  8
0
  10
6.872047244095
  20
7.712598425197
  30
0.25
  11
6.616141732283
  21
7.712598425197
  31
0.25
  0
LINE
  8
0
  10
6.616141732283
  20
7.712598425197
  30
0.25
  11
6.616141732283
  21
7.26968503937
  31
0.25
  0
LINE
  8
0
  10
6.616141732283
  20
8.59842519685
  30
0.25
  11
6.872047244094
  21
8.59842519685
  31
0.25
  0
LINE
  8
0
  10
6.872047244094
  20
8.59842519685
  30
0.25
  11
6.872047244094
  21
9.041338582677
  31
0.25
  0
LINE
  8
0
  10
6.872047244094
  20
9.041338582677
  30
0.25
  11
6.616141732283
  21
9.041338582677
  31
0.25
  0
LINE
  8
0
  10
6.616141732283
  20
9.041338582677
  30
0.25
  11
6.616141732283
  21
8.59842519685
  31
0.25
  0
LINE
  8
0
  10
4.958661417323
  20
9.523622047244
  30
0.25
  11
7.395177165354
  21
9.523622047244
  31
0.25
  0
ARC
  8
0
  10
7.395177165354
  20
9.582677165354
  30
0.25
  40
0.05905511811
  50
270
  51
450
  0
LINE
  8
0
  10
7.395177165354
  20
9.641732283465
  30
0.25
  11
4.958661417323
  21
9.641732283465
  31
0.25
  0
ARC
  8
0
  10
4.958661417323
  20
9.582677165354
  30
0.25
  40
0.05905511811
  50
90
  51
270
  0
ARC
  8
0
  10
7.395177165354
  20
6.728346456693
  30
0.25
  40
0.05905511811
  50
270
  51
450
  0
LINE
  8
0
  10
7.395177165354
  20
6.787401574803
  30
0.25
  11
4.958661417323
  21
6.787401574803
  31
0.25
  0
ARC
  8
0
  10
4.958661417323
  20
6.728346456693
  30
0.25
  40
0.05905511811
  50
90
  51
270
  0
LINE
  8
0
  10
4.958661417323
  20
6.669291338583
  30
0.25
  11
7.395177165354
  21
6.669291338583
  31
0.25
  0
LINE
  8
0
  10
7.918307086614
  20
10.124015748031
  30
0.25
  11
4.771653543307
  21
10.124015748031
  31
0.25
  0
LINE
  8
0
  10
4.771653543307
  20
10.124015748031
  30
0.25
  11
4.771653543307
  21
6.187007874016
  31
0.25
  0
LINE
  8
0
  10
4.771653543307
  20
6.187007874016
  30
0.25
  11
7.918307086614
  21
6.187007874016
  31
0.25
  0
LINE
  8
0
  10
7.918307086614
  20
6.187007874016
  30
0.25
  11
7.918307086614
  21
10.124015748031
  31
0.25
  0
LINE
  8
0
  10
5.027559055118
  20
4.536417322835
  30
0.25
  11
5.283464566929
  21
4.536417322835
  31
0.25
  0
LINE
  8
0
  10
5.283464566929
  20
4.536417322835
  30
0.25
  11
5.283464566929
  21
4.979330708661
  31
0.25
  0
LINE
  8
0
  10
5.283464566929
  20
4.979330708661
  30
0.25
  11
5.027559055118
  21
4.979330708661
  31
0.25
  0
LINE
  8
0
  10
5.027559055118
  20
4.979330708661
  30
0.25
  11
5.027559055118
  21
4.536417322835
  31
0.25
  0
LINE
  8
0
  10
5.027559055118
  20
3.207677165354
  30
0.25
  11
5.283464566929
  21
3.207677165354
  31
0.25
  0
LINE
  8
0
  10
5.283464566929
  20
3.207677165354
  30
0.25
  11
5.283464566929
  21
3.650590551181
  31
0.25
  0
LINE
  8
0
  10
5.283464566929
  20
3.650590551181
  30
0.25
  11
5.027559055118
  21
3.650590551181
  31
0.25
  0
LINE
  8
0
  10
5.027559055118
  20
3.650590551181
  30
0.25
  11
5.027559055118
  21
3.207677165354
  31
0.25
  0
LINE
  8
0
  10
6.616141732283
  20
3.207677165354
  30
0.25
  11
6.872047244095
  21
3.207677165354
  31
0.25
  0
LINE
  8
0
  10
6.872047244094
  20
3.207677165354
  30
0.25
  11
6.872047244094
  21
3.650590551181
  31
0.25
  0
LINE
  8
0
  10
6.872047244095
  20
3.650590551181
  30
0.25
  11
6.616141732283
  21
3.650590551181
  31
0.25
  0
LINE
  8
0
  10
6.616141732283
  20
3.650590551181
  30
0.25
  11
6.616141732283
  21
3.207677165354
  31
0.25
  0
LINE
  8
0
  10
6.616141732283
  20
4.536417322835
  30
0.25
  11
6.872047244094
  21
4.536417322835
  31
0.25
  0
LINE
  8
0
  10
6.872047244094
  20
4.536417322835
  30
0.25
  11
6.872047244094
  21
4.979330708661
  31
0.25
  0
LINE
  8
0
  10
6.872047244094
  20
4.979330708661
  30
0.25
  11
6.616141732283
  21
4.979330708661
  31
0.25
  0
LINE
  8
0
  10
6.616141732283
  20
4.979330708661
  30
0.25
  11
6.616141732283
  21
4.536417322835
  31
0.25
  0
LINE
  8
0
  10
4.958661417323
  20
5.461614173228
  30
0.25
  11
7.395177165354
  21
5.461614173228
  31
0.25
  0
ARC
  8
0
  10
7.395177165354
  20
5.520669291339
  30
0.25
  40
0.05905511811
  50
270
  51
450
  0
LINE
  8
0
  10
7.395177165354
  20
5.579724409449
  30
0.25
  11
4.958661417323
  21
5.579724409449
  31
0.25
  0
ARC
  8
0
  10
4.958661417323
  20
5.520669291339
  30
0.25
  40
0.05905511811
  50
90
  51
270
  0
ARC
  8
0
  10
7.395177165354
  20
2.666338582677
  30
0.25
  40
0.05905511811
  50
270
  51
450
  0
LINE
  8
0
  10
7.395177165354
  20
2.725393700787
  30
0.25
  11
4.958661417323
  21
2.725393700787
  31
0.25
  0
ARC
  8
0
  10
4.958661417323
  20
2.666338582677
  30
0.25
  40
0.05905511811
  50
90
  51
270
  0
LINE
  8
0
  10
4.958661417323
  20
2.607283464567
  30
0.25
  11
7.395177165354
  21
2.607283464567
  31
0.25
  0
LINE
  8
0
  10
7.918307086614
  20
6.062007874016
  30
0.25
  11
4.771653543307
  21
6.062007874016
  31
0.25
  0
LINE
  8
0
  10
4.771653543307
  20
6.062007874016
  30
0.25
  11
4.771653543307
  21
2.125
  31
0.25
  0
LINE
  8
0
  10
4.771653543307
  20
2.125
  30
0.25
  11
7.918307086614
  21
2.125
  31
0.25
  0
LINE
  8
0
  10
7.918307086614
  20
2.125
  30
0.25
  11
7.918307086614
  21
6.062007874016
  31
0.25
  0
LINE
  8
0
  10
8.299212598425
  20
4.536417322835
  30
0.25
  11
8.555118110236
  21
4.536417322835
  31
0.25
  0
LINE
  8
0
  10
8.555118110236
  20
4.536417322835
  30
0.25
  11
8.555118110236
  21
4.979330708661
  31
0.25
  0
LINE
  8
0
  10
8.555118110236
  20
4.979330708661
  30
0.25
  11
8.299212598425
  21
4.979330708661
  31
0.25
  0
LINE
  8
0
  10
8.299212598425
  20
4.979330708661
  30
0.25
  11
8.299212598425
  21
4.536417322835
  31
0.25
  0
LINE
  8
0
  10
8.299212598425
  20
3.207677165354
  30
0.25
  11
8.555118110236
  21
3.207677165354
  31
0.25
  0
LINE
  8
0
  10
8.555118110236
  20
3.207677165354
  30
0.25
  11
8.555118110236
  21
3.650590551181
  31
0.25
  0
LINE
  8
0
  10
8.555118110236
  20
3.650590551181
  30
0.25
  11
8.299212598425
  21
3.650590551181
  31
0.25
  0
LINE
  8
0
  10
8.299212598425
  20
3.650590551181
  30
0.25
  11
8.299212598425
  21
3.207677165354
  31
0.25
  0
LINE
  8
0
  10
9.887795275591
  20
3.207677165354
  30
0.25
  11
10.143700787402
  21
3.207677165354
  31
0.25
  0
LINE
  8
0
  10
10.143700787402
  20
3.207677165354
  30
0.25
  11
10.143700787402
  21
3.650590551181
  31
0.25
  0
LINE
  8
0
  10
10.143700787402
  20
3.650590551181
  30
0.25
  11
9.887795275591
  21
3.650590551181
  31
0.25
  0
LINE
  8
0
  10
9.887795275591
  20
3.650590551181
  30
0.25
  11
9.887795275591
  21
3.207677165354
  31
0.25
  0
LINE
  8
0
  10
9.887795275591
  20
4.536417322835
  30
0.25
  11
10.143700787402
  21
4.536417322835
  31
0.25
  0
LINE
  8
0
  10
10.143700787402
  20
4.536417322835
  30
0.25
  11
10.143700787402
  21
4.979330708661
  31
0.25
  0
LINE
  8
0
  10
10.143700787402
  20
4.979330708661
  30
0.25
  11
9.887795275591
  21
4.979330708661
  31
0.25
  0
LINE
  8
0
  10
9.887795275591
  20
4.979330708661
  30
0.25
  11
9.887795275591
  21
4.536417322835
  31
0.25
  0
LINE
  8
0
  10
8.23031496063
  20
5.461614173228
  30
0.25
  11
10.666830708661
  21
5.461614173228
  31
0.25
  0
ARC
  8
0
  10
10.666830708661
  20
5.520669291339
  30
0.25
  40
0.05905511811
  50
270
  51
450
  0
LINE
  8
0
  10
10.666830708661
  20
5.579724409449
  30
0.25
  11
8.23031496063
  21
5.579724409449
  31
0.25
  0
ARC
  8
0
  10
8.23031496063
  20
5.520669291339
  30
0.25
  40
0.05905511811
  50
90
  51
270
  0
ARC
  8
0
  10
10.666830708661
  20
2.666338582677
  30
0.25
  40
0.05905511811
  50
270
  51
450
  0
LINE
  8
0
  10
10.666830708661
  20
2.725393700787
  30
0.25
  11
8.23031496063
  21
2.725393700787
  31
0.25
  0
ARC
  8
0
  10
8.23031496063
  20
2.666338582677
  30
0.25
  40
0.05905511811
  50
90
  51
270
  0
LINE
  8
0
  10
8.23031496063
  20
2.607283464567
  30
0.25
  11
10.666830708661
  21
2.607283464567
  31
0.25
  0
LINE
  8
0
  10
11.189960629921
  20
6.062007874016
  30
0.25
  11
8.043307086614
  21
6.062007874016
  31
0.25
  0
LINE
  8
0
  10
8.043307086614
  20
6.062007874016
  30
0.25
  11
8.043307086614
  21
2.125
  31
0.25
  0
LINE
  8
0
  10
8.043307086614
  20
2.125
  30
0.25
  11
11.189960629921
  21
2.125
  31
0.25
  0
LINE
  8
0
  10
11.189960629921
  20
2.125
  30
0.25
  11
11.189960629921
  21
6.062007874016
  31
0.25
  0
CIRCLE
  8
0
  10
13.116141732283
  20
11.206692913386
  30
0.25
  40
0.433070866142
  0
CIRCLE
  8
0
  10
12.505905511811
  20
11.816929133858
  30
0.25
  40
0.05905511811
  0
CIRCLE
  8
0
  10
12.505905511811
  20
10.596456692913
  30
0.25
  40
0.05905511811
  0
CIRCLE
  8
0
  10
13.726377952756
  20
11.816929133858
  30
0.25
  40
0.05905511811
  0
CIRCLE
  8
0
  10
13.726377952756
  20
10.596456692913
  30
0.25
  40
0.05905511811
  0
LINE
  8
0
  10
14.626968503937
  20
10.320866141732
  30
0.25
  11
14.626968503937
  21
10.763779527559
  31
0.25
  0
LINE
  8
0
  10
14.626968503937
  20
10.763779527559
  30
0.25
  11
14.376968503937
  21
10.763779527559
  31
0.25
  0
LINE
  8
0
  10
14.376968503937
  20
10.763779527559
  30
0.25
  11
14.376968503937
  21
11.649606299213
  31
0.25
  0
LINE
  8
0
  10
14.376968503937
  20
11.649606299213
  30
0.25
  11
14.626968503937
  21
11.649606299213
  31
0.25
  0
LINE
  8
0
  10
14.626968503937
  20
11.649606299213
  30
0.25
  11
14.626968503937
  21
12.092519685039
  31
0.25
  0
LINE
  8
0
  10
14.626968503937
  20
12.092519685039
  30
0.25
  11
12.23031496063
  21
12.092519685039
  31
0.25
  0
LINE
  8
0
  10
12.23031496063
  20
12.092519685039
  30
0.25
  11
12.23031496063
  21
10.320866141732
  31
0.25
  0
LINE
  8
0
  10
12.23031496063
  20
10.320866141732
  30
0.25
  11
14.626968503937
  21
10.320866141732
  31
0.25
  0
CIRCLE
  8
0
  10
2.885826771654
  20
12.494094488189
  30
0.25
  40
0.433070866142
  0
CIRCLE
  8
0
  10
2.275590551181
  20
13.104330708661
  30
0.25
  40
0.05905511811
  0
CIRCLE
  8
0
  10
2.275590551181
  20
11.883858267717
  30
0.25
  40
0.05905511811
  0
CIRCLE
  8
0
  10
3.496062992126
  20
13.104330708661
  30
0.25
  40
0.05905511811
  0
CIRCLE
  8
0
  10
3.496062992126
  20
11.883858267717
  30
0.25
  40
0.05905511811
  0
LINE
  8
0
  10
4.396653543307
  20
11.608267716535
  30
0.25
  11
4.396653543307
  21
12.051181102362
  31
0.25
  0
LINE
  8
0
  10
4.396653543307
  20
12.051181102362
  30
0.25
  11
4.146653543307
  21
12.051181102362
  31
0.25
  0
LINE
  8
0
  10
4.146653543307
  20
12.051181102362
  30
0.25
  11
4.146653543307
  21
12.937007874016
  31
0.25
  0
LINE
  8
0
  10
4.146653543307
  20
12.937007874016
  30
0.25
  11
4.396653543307
  21
12.937007874016
  31
0.25
  0
LINE
  8
0
  10
4.396653543307
  20
12.937007874016
  30
0.25
  11
4.396653543307
  21
13.379921259843
  31
0.25
  0
LINE
  8
0
  10
4.396653543307
  20
13.379921259843
  30
0.25
  11
2
  21
13.379921259842
  31
0.25
  0
LINE
  8
0
  10
2
  20
13.379921259842
  30
0.25
  11
2
  21
11.608267716535
  31
0.25
  0
LINE
  8
0
  10
2
  20
11.608267716535
  30
0.25
  11
4.396653543307
  21
11.608267716535
  31
0.25
  0
CIRCLE
  8
0
  10
2.275590551181
  20
11.207677165354
  30
0.25
  40
0.05905511811
  0
CIRCLE
  8
0
  10
2.275590551181
  20
9.987204724409
  30
0.25
  40
0.05905511811
  0
CIRCLE
  8
0
  10
3.496062992126
  20
11.207677165354
  30
0.25
  40
0.05905511811
  0
CIRCLE
  8
0
  10
3.496062992126
  20
9.987204724409
  30
0.25
  40
0.05905511811
  0
CIRCLE
  8
0
  10
2.885826771654
  20
10.597440944882
  30
0.25
  40
0.433070866142
  0
LINE
  8
0
  10
4.396653543307
  20
9.711614173228
  30
0.25
  11
4.396653543307
  21
10.154527559055
  31
0.25
  0
LINE
  8
0
  10
4.396653543307
  20
10.154527559055
  30
0.25
  11
4.146653543307
  21
10.154527559055
  31
0.25
  0
LINE
  8
0
  10
4.146653543307
  20
10.154527559055
  30
0.25
  11
4.146653543307
  21
11.040354330709
  31
0.25
  0
LINE
  8
0
  10
4.146653543307
  20
11.040354330709
  30
0.25
  11
4.396653543307
  21
11.040354330709
  31
0.25
  0
LINE
  8
0
  10
4.396653543307
  20
11.040354330709
  30
0.25
  11
4.396653543307
  21
11.483267716535
  31
0.25
  0
LINE
  8
0
  10
4.396653543307
  20
11.483267716535
  30
0.25
  11
2
  21
11.483267716535
  31
0.25
  0
LINE
  8
0
  10
2
  20
11.483267716535
  30
0.25
  11
2
  21
9.711614173228
  31
0.25
  0
LINE
  8
0
  10
2
  20
9.711614173228
  30
0.25
  11
4.396653543307
  21
9.711614173228
  31
0.25
  0
CIRCLE
  8
0
  10
3.135826771654
  20
8.700787401575
  30
0.25
  40
0.492125984252
  0
CIRCLE
  8
0
  10
2.525590551181
  20
9.311023622047
  30
0.25
  40
0.05905511811
  0
CIRCLE
  8
0
  10
2.525590551181
  20
8.090551181102
  30
0.25
  40
0.05905511811
  0
CIRCLE
  8
0
  10
3.746062992126
  20
9.311023622047
  30
0.25
  40
0.05905511811
  0
CIRCLE
  8
0
  10
3.746062992126
  20
8.090551181102
  30
0.25
  40
0.05905511811
  0
LINE
  8
0
  10
2
  20
8.257874015748
  30
0.25
  11
2
  21
7.814960629921
  31
0.25
  0
LINE
  8
0
  10
2
  20
7.814960629921
  30
0.25
  11
4.646653543307
  21
7.814960629921
  31
0.25
  0
LINE
  8
0
  10
4.646653543307
  20
7.814960629921
  30
0.25
  11
4.646653543307
  21
8.257874015748
  31
0.25
  0
LINE
  8
0
  10
4.646653543307
  20
8.257874015748
  30
0.25
  11
4.396653543307
  21
8.257874015748
  31
0.25
  0
LINE
  8
0
  10
4.396653543307
  20
8.257874015748
  30
0.25
  11
4.396653543307
  21
9.143700787402
  31
0.25
  0
LINE
  8
0
  10
4.396653543307
  20
9.143700787402
  30
0.25
  11
4.646653543307
  21
9.143700787402
  31
0.25
  0
LINE
  8
0
  10
4.646653543307
  20
9.143700787402
  30
0.25
  11
4.646653543307
  21
9.586614173228
  31
0.25
  0
LINE
  8
0
  10
4.646653543307
  20
9.586614173228
  30
0.25
  11
2
  21
9.586614173228
  31
0.25
  0
LINE
  8
0
  10
2
  20
9.586614173228
  30
0.25
  11
2
  21
9.143700787402
  31
0.25
  0
LINE
  8
0
  10
2
  20
9.143700787402
  30
0.25
  11
2.25
  21
9.143700787402
  31
0.25
  0
LINE
  8
0
  10
2.25
  20
9.143700787402
  30
0.25
  11
2.25
  21
8.257874015748
  31
0.25
  0
LINE
  8
0
  10
2.25
  20
8.257874015748
  30
0.25
  11
2
  21
8.257874015748
  31
0.25
  0
CIRCLE
  8
0
  10
3.135826771654
  20
8.700787401575
  30
0.25
  40
0.393700787402
  0
CIRCLE
  8
0
  10
3.135826771654
  20
8.700787401575
  30
0.25
  40
0.157480314961
  0
CIRCLE
  8
0
  10
3.135826771654
  20
6.804133858268
  30
0.25
  40
0.09842519685
  0
CIRCLE
  8
0
  10
3.135826771654
  20
6.804133858268
  30
0.25
  40
0.393700787402
  0
CIRCLE
  8
0
  10
3.135826771654
  20
6.804133858268
  30
0.25
  40
0.492125984252
  0
CIRCLE
  8
0
  10
2.525590551181
  20
7.41437007874
  30
0.25
  40
0.05905511811
  0
CIRCLE
  8
0
  10
2.525590551181
  20
6.193897637795
  30
0.25
  40
0.05905511811
  0
CIRCLE
  8
0
  10
3.746062992126
  20
7.41437007874
  30
0.25
  40
0.05905511811
  0
CIRCLE
  8
0
  10
3.746062992126
  20
6.193897637795
  30
0.25
  40
0.05905511811
  0
LINE
  8
0
  10
2
  20
6.361220472441
  30
0.25
  11
2
  21
5.918307086614
  31
0.25
  0
LINE
  8
0
  10
2
  20
5.918307086614
  30
0.25
  11
4.646653543307
  21
5.918307086614
  31
0.25
  0
LINE
  8
0
  10
4.646653543307
  20
5.918307086614
  30
0.25
  11
4.646653543307
  21
6.361220472441
  31
0.25
  0
LINE
  8
0
  10
4.646653543307
  20
6.361220472441
  30
0.25
  11
4.396653543307
  21
6.361220472441
  31
0.25
  0
LINE
  8
0
  10
4.396653543307
  20
6.361220472441
  30
0.25
  11
4.396653543307
  21
7.247047244095
  31
0.25
  0
LINE
  8
0
  10
4.396653543307
  20
7.247047244095
  30
0.25
  11
4.646653543307
  21
7.247047244095
  31
0.25
  0
LINE
  8
0
  10
4.646653543307
  20
7.247047244095
  30
0.25
  11
4.646653543307
  21
7.689960629921
  31
0.25
  0
LINE
  8
0
  10
4.646653543307
  20
7.689960629921
  30
0.25
  11
2
  21
7.689960629921
  31
0.25
  0
LINE
  8
0
  10
2
  20
7.689960629921
  30
0.25
  11
2
  21
7.247047244094
  31
0.25
  0
LINE
  8
0
  10
2
  20
7.247047244094
  30
0.25
  11
2.25
  21
7.247047244094
  31
0.25
  0
LINE
  8
0
  10
2.25
  20
7.247047244094
  30
0.25
  11
2.25
  21
6.361220472441
  31
0.25
  0
LINE
  8
0
  10
2.25
  20
6.361220472441
  30
0.25
  11
2
  21
6.361220472441
  31
0.25
  0
CIRCLE
  8
0
  10
3.135826771654
  20
3.010826771654
  30
0.25
  40
0.492125984252
  0
CIRCLE
  8
0
  10
2.525590551181
  20
3.621062992126
  30
0.25
  40
0.05905511811
  0
CIRCLE
  8
0
  10
2.525590551181
  20
2.400590551181
  30
0.25
  40
0.05905511811
  0
CIRCLE
  8
0
  10
3.746062992126
  20
3.621062992126
  30
0.25
  40
0.05905511811
  0
CIRCLE
  8
0
  10
3.746062992126
  20
2.400590551181
  30
0.25
  40
0.05905511811
  0
LINE
  8
0
  10
2
  20
2.567913385827
  30
0.25
  11
2
  21
2.125
  31
0.25
  0
LINE
  8
0
  10
2
  20
2.125
  30
0.25
  11
4.646653543307
  21
2.125
  31
0.25
  0
LINE
  8
0
  10
4.646653543307
  20
2.125
  30
0.25
  11
4.646653543307
  21
2.567913385827
  31
0.25
  0
LINE
  8
0
  10
4.646653543307
  20
2.567913385827
  30
0.25
  11
4.396653543307
  21
2.567913385827
  31
0.25
  0
LINE
  8
0
  10
4.396653543307
  20
2.567913385827
  30
0.25
  11
4.396653543307
  21
3.45374015748
  31
0.25
  0
LINE
  8
0
  10
4.396653543307
  20
3.45374015748
  30
0.25
  11
4.646653543307
  21
3.45374015748
  31
0.25
  0
LINE
  8
0
  10
4.646653543307
  20
3.45374015748
  30
0.25
  11
4.646653543307
  21
3.896653543307
  31
0.25
  0
LINE
  8
0
  10
4.646653543307
  20
3.896653543307
  30
0.25
  11
2
  21
3.896653543307
  31
0.25
  0
LINE
  8
0
  10
2
  20
3.896653543307
  30
0.25
  11
2
  21
3.45374015748
  31
0.25
  0
LINE
  8
0
  10
2
  20
3.45374015748
  30
0.25
  11
2.25
  21
3.45374015748
  31
0.25
  0
LINE
  8
0
  10
2.25
  20
3.45374015748
  30
0.25
  11
2.25
  21
2.567913385827
  31
0.25
  0
LINE
  8
0
  10
2.25
  20
2.567913385827
  30
0.25
  11
2
  21
2.567913385827
  31
0.25
  0
CIRCLE
  8
0
  10
3.135826771654
  20
4.907480314961
  30
0.25
  40
0.492125984252
  0
CIRCLE
  8
0
  10
2.525590551181
  20
5.517716535433
  30
0.25
  40
0.05905511811
  0
CIRCLE
  8
0
  10
2.525590551181
  20
4.297244094488
  30
0.25
  40
0.05905511811
  0
CIRCLE
  8
0
  10
3.746062992126
  20
5.517716535433
  30
0.25
  40
0.05905511811
  0
CIRCLE
  8
0
  10
3.746062992126
  20
4.297244094488
  30
0.25
  40
0.05905511811
  0
LINE
  8
0
  10
2
  20
4.464566929134
  30
0.25
  11
2
  21
4.021653543307
  31
0.25
  0
LINE
  8
0
  10
2
  20
4.021653543307
  30
0.25
  11
4.646653543307
  21
4.021653543307
  31
0.25
  0
LINE
  8
0
  10
4.646653543307
  20
4.021653543307
  30
0.25
  11
4.646653543307
  21
4.464566929134
  31
0.25
  0
LINE
  8
0
  10
4.646653543307
  20
4.464566929134
  30
0.25
  11
4.396653543307
  21
4.464566929134
  31
0.25
  0
LINE
  8
0
  10
4.396653543307
  20
4.464566929134
  30
0.25
  11
4.396653543307
  21
5.350393700787
  31
0.25
  0
LINE
  8
0
  10
4.396653543307
  20
5.350393700787
  30
0.25
  11
4.646653543307
  21
5.350393700787
  31
0.25
  0
LINE
  8
0
  10
4.646653543307
  20
5.350393700787
  30
0.25
  11
4.646653543307
  21
5.793307086614
  31
0.25
  0
LINE
  8
0
  10
4.646653543307
  20
5.793307086614
  30
0.25
  11
2
  21
5.793307086614
  31
0.25
  0
LINE
  8
0
  10
2
  20
5.793307086614
  30
0.25
  11
2
  21
5.350393700787
  31
0.25
  0
LINE
  8
0
  10
2
  20
5.350393700787
  30
0.25
  11
2.25
  21
5.350393700787
  31
0.25
  0
LINE
  8
0
  10
2.25
  20
5.350393700787
  30
0.25
  11
2.25
  21
4.464566929134
  31
0.25
  0
LINE
  8
0
  10
2.25
  20
4.464566929134
  30
0.25
  11
2
  21
4.464566929134
  31
0.25
  0
ENDSEC
  0
EOF
