  0
SECTION
  2
HEADER
  9
$ACADVER
  1
AC1009
  9
$MEASUREMENT
  70
0
  9
$INSUNITS
  70
1
  9
$DIMLFAC
  40
1
  9
$INSBASE
  10
0.0
  20
0.0
  30
0.0
  9
$EXTMIN
  10
2
  20
2
  9
$EXTMAX
  10
8.688976377953
  20
10.530511811024
  9
$LIMMIN
  10
2
  20
2
  9
$LIMMAX
  10
8.688976377953
  20
10.530511811024
  9
$CLAYER
  8
0
  0
ENDSEC
  0
SECTION
  2
TABLES
  0
TABLE
  2
LTYPE
  70
2
  0
LTYPE
  2
CONTINUOUS
  70
65
  3
Solid line
  72
65
  73
0
  40
0
  0
LTYPE
  2
DASHED
  70
65
  3
 _ _ _ _ _ _ _ _ _ _ _ _ _ _ _ _ _ _ _ _ _ _
  72
65
  73
2
  40
0.07874015748
  49
0.03937007874
  49
-0.03937007874
  0
ENDTAB
  0
TABLE
  2
LAYER
  70
1
  0
LAYER
  2
0
  70
0
  62
7
  6
CONTINUOUS
  0
ENDTAB
  0
ENDSEC
  0
SECTION
  2
BLOCKS
  0
ENDSEC
  0
SECTION
  2
ENTITIES
  0
LINE
  8
0
  10
4.844488188977
  20
8.405511811024
  30
0.354330708661
  11
4.844488188977
  21
2.5
  31
0.354330708661
  0
LINE
  8
0
  10
4.844488188977
  20
2.5
  30
0.354330708661
  11
4.094488188977
  21
2.5
  31
0.354330708661
  0
LINE
  8
0
  10
4.094488188977
  20
2.5
  30
0.354330708661
  11
4.094488188977
  21
2
  31
0.354330708661
  0
LINE
  8
0
  10
4.094488188977
  20
2
  30
0.354330708661
  11
5.156988188977
  21
2
  31
0.354330708661
  0
LINE
  8
0
  10
5.156988188977
  20
2
  30
0.354330708661
  11
5.156988188977
  21
3
  31
0.354330708661
  0
LINE
  8
0
  10
5.156988188977
  20
3
  30
0.354330708661
  11
5.531988188977
  21
3
  31
0.354330708661
  0
LINE
  8
0
  10
5.531988188977
  20
3
  30
0.354330708661
  11
5.531988188977
  21
2
  31
0.354330708661
  0
LINE
  8
0
  10
5.531988188977
  20
2
  30
0.354330708661
  11
6.594488188977
  21
2
  31
0.354330708661
  0
LINE
  8
0
  10
6.594488188977
  20
2
  30
0.354330708661
  11
6.594488188977
  21
2.5
  31
0.354330708661
  0
LINE
  8
0
  10
6.594488188977
  20
2.5
  30
0.354330708661
  11
5.844488188977
  21
2.5
  31
0.354330708661
  0
LINE
  8
0
  10
5.844488188977
  20
2.5
  30
0.354330708661
  11
5.844488188977
  21
8.405511811024
  31
0.354330708661
  0
LINE
  8
0
  10
5.844488188977
  20
8.405511811024
  30
0.354330708661
  11
6.594488188977
  21
8.405511811024
  31
0.354330708661
  0
LINE
  8
0
  10
6.594488188977
  20
8.405511811024
  30
0.354330708661
  11
6.594488188977
  21
8.905511811024
  31
0.354330708661
  0
LINE
  8
0
  10
6.594488188977
  20
8.905511811024
  30
0.354330708661
  11
5.531988188977
  21
8.905511811024
  31
0.354330708661
  0
LINE
  8
0
  10
5.531988188977
  20
8.905511811024
  30
0.354330708661
  11
5.531988188977
  21
7.905511811024
  31
0.354330708661
  0
LINE
  8
0
  10
5.531988188977
  20
7.905511811024
  30
0.354330708661
  11
5.156988188977
  21
7.905511811024
  31
0.354330708661
  0
LINE
  8
0
  10
5.156988188977
  20
7.905511811024
  30
0.354330708661
  11
5.156988188977
  21
8.905511811024
  31
0.354330708661
  0
LINE
  8
0
  10
5.156988188977
  20
8.905511811024
  30
0.354330708661
  11
4.094488188976
  21
8.905511811024
  31
0.354330708661
  0
LINE
  8
0
  10
4.094488188977
  20
8.905511811024
  30
0.354330708661
  11
4.094488188977
  21
8.405511811024
  31
0.354330708661
  0
LINE
  8
0
  10
4.094488188977
  20
8.405511811024
  30
0.354330708661
  11
4.844488188977
  21
8.405511811024
  31
0.354330708661
  0
LINE
  8
0
  10
6.061515748032
  20
9.030511811024
  30
0.354330708661
  11
6.729822834646
  21
9.030511811024
  31
0.354330708661
  0
LINE
  8
0
  10
6.729822834646
  20
9.030511811024
  30
0.354330708661
  11
6.729822834646
  21
5.2025976932
  31
0.354330708661
  0
ARC
  8
0
  10
7.438976377953
  20
4.173228346457
  30
0.354330708661
  40
1.25
  50
124.563749071264
  51
180
  0
LINE
  8
0
  10
6.188976377953
  20
4.173228346457
  30
0.354330708661
  11
7.313976377953
  21
4.173228346457
  31
0.354330708661
  0
LINE
  8
0
  10
7.313976377953
  20
4.173228346457
  30
0.354330708661
  11
7.313976377953
  21
6.173228346457
  31
0.354330708661
  0
LINE
  8
0
  10
7.313976377953
  20
6.173228346457
  30
0.354330708661
  11
7.563976377953
  21
6.173228346457
  31
0.354330708661
  0
LINE
  8
0
  10
7.563976377953
  20
6.173228346457
  30
0.354330708661
  11
7.563976377953
  21
4.173228346457
  31
0.354330708661
  0
LINE
  8
0
  10
7.563976377953
  20
4.173228346457
  30
0.354330708661
  11
8.688976377953
  21
4.173228346457
  31
0.354330708661
  0
ARC
  8
0
  10
7.438976377953
  20
4.173228346457
  30
0.354330708661
  40
1.25
  50
0
  51
55.436250928736
  0
LINE
  8
0
  10
8.14812992126
  20
5.2025976932
  30
0.354330708661
  11
8.14812992126
  21
10.530511811024
  31
0.354330708661
  0
LINE
  8
0
  10
8.14812992126
  20
10.530511811024
  30
0.354330708661
  11
6.061515748032
  21
10.530511811024
  31
0.354330708661
  0
ARC
  8
0
  10
5.531988188976
  20
10.530511811024
  30
0.354330708661
  40
0.529527559055
  50
-90
  51
0
  0
LINE
  8
0
  10
5.531988188976
  20
10.000984251968
  30
0.354330708661
  11
5.531988188976
  21
9.560039370079
  31
0.354330708661
  0
ARC
  8
0
  10
5.531988188977
  20
9.030511811024
  30
0.354330708661
  40
0.529527559055
  50
0
  51
90
  0
LINE
  8
0
  10
4.627460629921
  20
9.030511811024
  30
0.354330708661
  11
3.959153543307
  21
9.030511811024
  31
0.354330708661
  0
LINE
  8
0
  10
3.959153543307
  20
9.030511811024
  30
0.354330708661
  11
3.959153543307
  21
5.2025976932
  31
0.354330708661
  0
ARC
  8
0
  10
3.25
  20
4.173228346457
  30
0.354330708661
  40
1.25
  50
0
  51
55.436250928736
  0
LINE
  8
0
  10
4.5
  20
4.173228346457
  30
0.354330708661
  11
3.375
  21
4.173228346457
  31
0.354330708661
  0
LINE
  8
0
  10
3.375
  20
4.173228346457
  30
0.354330708661
  11
3.375
  21
6.173228346457
  31
0.354330708661
  0
LINE
  8
0
  10
3.375
  20
6.173228346457
  30
0.354330708661
  11
3.125
  21
6.173228346457
  31
0.354330708661
  0
LINE
  8
0
  10
3.125
  20
6.173228346457
  30
0.354330708661
  11
3.125
  21
4.173228346457
  31
0.354330708661
  0
LINE
  8
0
  10
3.125
  20
4.173228346457
  30
0.354330708661
  11
2
  21
4.173228346457
  31
0.354330708661
  0
ARC
  8
0
  10
3.25
  20
4.173228346457
  30
0.354330708661
  40
1.25
  50
124.563749071264
  51
180
  0
LINE
  8
0
  10
2.540846456693
  20
5.2025976932
  30
0.354330708661
  11
2.540846456693
  21
10.530511811024
  31
0.354330708661
  0
LINE
  8
0
  10
2.540846456693
  20
10.530511811024
  30
0.354330708661
  11
4.627460629921
  21
10.530511811024
  31
0.354330708661
  0
ARC
  8
0
  10
5.156988188977
  20
10.530511811024
  30
0.354330708661
  40
0.529527559055
  50
179.999999999997
  51
270
  0
LINE
  8
0
  10
5.156988188977
  20
10.000984251968
  30
0.354330708661
  11
5.156988188977
  21
9.560039370079
  31
0.354330708661
  0
ARC
  8
0
  10
5.156988188977
  20
9.030511811024
  30
0.354330708661
  40
0.529527559055
  50
90
  51
180
  0
ENDSEC
  0
EOF
